<svg width="279" height="214" viewBox="0 0 279 214" fill="none" xmlns="http://www.w3.org/2000/svg">
<path fill-rule="evenodd" clip-rule="evenodd" d="M186.182 212.559C184.689 212.442 183.239 212.685 181.79 212.928C181.251 213.018 180.712 213.108 180.172 213.18C182.192 213.19 184.207 212.982 186.182 212.559ZM186.986 212.653L186.222 212.557C186.353 212.197 186.669 212.135 186.987 212.102C190.16 211.702 193.299 211.068 196.379 210.206C197.125 210.01 197.891 209.932 198.651 209.856C199.473 209.772 200.289 209.69 201.068 209.459C203.036 208.874 204.984 208.199 206.927 207.525C207.743 207.243 208.559 206.96 209.375 206.684C212.719 205.555 216.001 204.297 219.194 202.852C223.187 201.045 227.171 199.206 231.02 197.078C237.425 193.51 243.586 189.518 249.46 185.129C250.241 184.55 250.963 183.903 251.682 183.258L251.682 183.258L251.682 183.257L251.683 183.257C252.461 182.559 253.236 181.864 254.079 181.261C256.112 179.806 257.994 178.153 259.699 176.324C259.975 176.028 260.253 175.732 260.53 175.435L260.531 175.434C262.122 173.736 263.717 172.034 265.201 170.223C269.334 165.273 272.696 159.725 275.172 153.768C279.002 144.372 279.13 135.197 274.652 126.313C274.684 126.276 274.717 126.24 274.75 126.203L274.792 126.155C274.834 126.108 274.876 126.06 274.918 126.01C274.944 125.978 274.971 125.946 274.999 125.913C275.305 125.55 275.667 125.121 275.369 124.539C274.781 123.389 274.49 122.195 274.835 120.978C274.681 120.814 274.539 120.665 274.405 120.526L274.404 120.525L274.403 120.524L274.402 120.523L274.402 120.523C274.135 120.245 273.903 120.004 273.696 119.746C273.289 119.236 272.755 118.804 272.155 119.04C271.438 119.321 270.908 119.347 270.411 118.722C270.345 118.657 270.253 118.626 270.161 118.638C270.017 118.669 269.875 118.689 269.733 118.7C267.117 115.329 264.161 112.246 261.073 109.276C259.655 107.911 258.223 106.561 256.791 105.211L256.788 105.209C254.356 102.916 251.924 100.623 249.56 98.2587C243.965 92.6717 239.767 86.2579 237.702 78.5544C237.104 76.3225 236.657 74.0678 236.296 71.7999C236.632 71.848 236.977 71.8351 237.317 71.7561C237.91 71.5984 238.543 71.7069 239.053 72.0534C239.527 72.3205 240.015 72.5606 240.516 72.7728C241.486 73.247 241.488 73.2453 242.382 72.468L242.407 72.4465C242.477 72.3852 242.587 72.3736 242.7 72.3616C242.777 72.3534 242.856 72.345 242.924 72.3204C243.657 72.0541 244.146 71.5393 244.056 71.0427C243.944 70.5922 243.802 70.1496 243.63 69.718L243.673 69.6917C244.221 69.3514 244.788 69.0001 244.729 68.2061C245.204 67.9013 245.046 67.5857 244.889 67.2703C244.791 67.0757 244.694 66.8811 244.746 66.6891C244.933 65.9903 244.506 65.6163 244.057 65.2234L243.978 65.154C243.428 64.6688 242.804 64.304 242.18 63.9391L242.18 63.9389C241.947 63.8025 241.714 63.6662 241.484 63.5236C241.449 63.5016 241.397 63.5064 241.329 63.5126C241.292 63.516 241.25 63.5199 241.204 63.52L241.601 64.2693C241.44 64.2304 241.276 64.2028 241.115 64.1757C240.765 64.1165 240.426 64.0594 240.153 63.8919C239.148 63.2792 238.389 63.6995 237.626 64.3016L236.385 65.2773C236.51 65.7933 236.205 66.0634 235.901 66.3333C235.794 66.4282 235.687 66.5231 235.598 66.6287C235.444 65.3039 235.302 63.9772 235.16 62.6504V62.6502C235.041 61.5365 234.922 60.4228 234.795 59.3101C234.244 54.4698 233.95 49.61 233.656 44.7506L233.656 44.7504L233.656 44.7501L233.656 44.7499L233.656 44.7497L233.656 44.7494L233.656 44.7492L233.656 44.749L233.656 44.7487L233.656 44.7485L233.656 44.7473C233.372 40.048 233.088 35.3491 232.571 30.6688C231.999 25.4836 230.752 20.4457 228.021 15.9438C223.023 7.71331 215.34 3.3459 206.227 1.15713C196.652 -1.14237 187.304 0.209984 178.155 3.23972C169.617 6.06697 162.161 10.8762 155.307 16.6374C151.395 19.9246 148.165 23.8546 145.055 27.8783C142.281 31.4684 139.764 35.2395 137.247 39.0108C135.836 41.1239 134.426 43.2372 132.97 45.3186C130.671 48.6069 128.238 51.7442 125.109 54.295C118.036 60.0595 110.012 64.135 101.621 67.5458C89.8778 72.3193 77.5202 74.8448 65.1749 77.3678L65.1748 77.3679L65.1747 77.3679L64.6615 77.4728C55.9621 79.2515 47.4648 81.5689 39.6065 85.8123C33.6968 89.0031 28.3747 92.9769 24.0336 98.1573C19.735 103.289 16.6906 109.142 14.24 115.339C14.1719 115.511 14.1042 115.684 14.0364 115.856L14.0355 115.858C13.1789 118.037 12.3215 120.218 10.8154 122.087C9.01105 124.361 7.51145 126.861 6.35477 129.525C4.53721 133.62 3.09038 137.857 1.64327 142.095L1.58825 142.256C-1.19571 150.405 -0.241702 158.193 3.83771 165.649C7.9112 173.092 13.4473 179.033 21.4128 182.428C26.1862 184.519 31.1656 186.103 36.269 187.153C39.8662 187.82 43.5 188.272 47.1508 188.504C47.7219 188.547 48.2851 188.481 48.8493 188.416L48.8494 188.416C49.7589 188.311 50.6708 188.206 51.6221 188.549C52.5382 188.881 53.815 188.657 54.7797 188.285C55.8224 187.883 56.9645 187.466 57.9147 187.649C59.3518 187.927 60.7299 187.751 62.1062 187.576H62.1064C62.7669 187.492 63.427 187.407 64.0931 187.373C64.9293 187.33 65.7144 187.07 66.4933 186.811C67.2204 186.569 67.942 186.33 68.6947 186.271C69.3098 186.222 69.9204 186.092 70.5323 185.962C71.8763 185.677 73.2261 185.39 74.642 185.963C75.2919 186.129 75.9808 185.929 76.4398 185.439C76.7334 185.174 77.2609 185.17 77.8594 185.165C78.1478 185.163 78.4527 185.16 78.7558 185.128C78.526 185.296 78.2927 185.313 78.0781 185.33C77.7962 185.351 77.5465 185.371 77.3789 185.722C80.5685 185.433 83.6866 185.334 86.8093 185.287C94.6693 185.189 102.472 186.646 109.77 189.573C118.655 193.07 127.151 197.376 135.598 201.793C141.361 204.863 147.332 207.524 153.468 209.755C159.739 212.022 166.308 213.352 172.964 213.704C177.663 213.911 182.37 213.558 186.986 212.653ZM235.847 68.6553C235.865 68.7982 235.884 68.9411 235.903 69.0839C236.008 69.1156 236.118 69.1485 236.232 69.1827C236.1 69.0009 235.981 68.8385 235.871 68.6889L235.868 68.6846L235.865 68.6806L235.862 68.6767L235.859 68.6729L235.857 68.6693C235.853 68.6646 235.85 68.66 235.847 68.6553ZM261.307 118.925C259.046 116.613 256.678 114.4 254.31 112.188C253.684 111.603 253.058 111.018 252.434 110.431C248.556 106.784 244.73 103.109 241.54 98.8753L240.257 100.174C239.933 100.122 239.62 100.064 239.314 100.007C238.664 99.8867 238.044 99.7719 237.42 99.7299C235.289 99.5863 233.452 98.6611 231.615 97.736L231.615 97.7356C231.183 97.5181 230.751 97.3005 230.315 97.0932C229.449 96.6805 228.933 95.9059 228.423 95.1401L228.422 95.1391C228.327 94.9964 228.233 94.8541 228.136 94.7145C228.063 94.6099 228.087 94.4384 228.111 94.2614V94.2613C228.123 94.1777 228.134 94.093 228.136 94.0134L228.166 94.0286C228.563 94.2339 228.939 94.4284 229.483 94.7088L228.306 93.0887C228.374 92.957 228.448 92.833 228.52 92.7133C228.676 92.4518 228.82 92.2101 228.873 91.9498C228.969 91.5694 229.263 91.2717 229.641 91.1713C229.892 91.071 230.184 91.0722 230.49 91.0735C230.626 91.0741 230.764 91.0747 230.903 91.0664C231.34 92.048 232.19 92.5182 233.141 92.9606C233.247 92.8284 233.396 92.7368 233.548 92.6436C233.818 92.4773 234.097 92.3059 234.155 91.889C234.233 91.7093 234.394 91.5804 234.587 91.5451C234.895 91.5191 235.205 91.4704 235.514 91.4217C235.985 91.3476 236.455 91.2736 236.923 91.2791C235.188 87.6764 233.915 83.8664 233.135 79.9396C231.026 68.9634 230.534 57.8289 230.042 46.6994L230.042 46.6985L229.983 45.384C229.916 43.8788 229.886 42.3714 229.857 40.8641V40.8637C229.78 37.0193 229.704 33.1751 229.015 29.367C228.371 25.8126 227.371 22.3887 225.399 19.3157C221.844 13.9389 216.523 9.9755 210.359 8.11165C210.181 8.07776 210.011 8.01034 209.858 7.91298C208.396 6.7373 206.669 6.67222 204.939 6.60701L204.938 6.60698C204.767 6.60051 204.595 6.59404 204.424 6.58648C204.304 6.58113 204.176 6.58256 204.046 6.58402C203.64 6.58857 203.215 6.59332 202.974 6.39258C202.343 5.86771 201.653 5.94373 200.951 6.02118C200.381 6.08397 199.803 6.1477 199.241 5.89289C198.935 5.75452 198.44 5.84907 197.902 5.95176C197.468 6.03464 197.007 6.12282 196.594 6.09815L198.018 5.84448L197.949 5.66031C197.539 5.68319 197.129 5.6978 196.719 5.71242C195.818 5.74449 194.918 5.77656 194.029 5.89585C193.704 5.93955 193.38 5.98238 193.055 6.0252C189.165 6.53808 185.288 7.04924 181.726 9.03039C181.27 9.28397 180.741 9.43006 180.199 9.57956C179.538 9.76209 178.858 9.94972 178.272 10.3443C177.547 10.8322 176.747 11.1452 175.939 11.4612C175.119 11.7821 174.291 12.106 173.526 12.6191C171.186 14.1889 168.776 15.7032 166.309 17.0842C165.212 17.6978 164.261 18.4823 163.312 19.2652L163.312 19.2654L163.312 19.2656C162.845 19.651 162.378 20.0361 161.894 20.4003C160.783 21.3334 159.724 22.3272 158.723 23.3771C156.754 25.2127 154.944 27.2115 153.311 29.352C151.678 31.5254 150.127 33.7771 148.61 36.0443C148.019 36.9273 147.443 37.821 146.866 38.7148L146.865 38.7157C145.982 40.0857 145.098 41.456 144.162 42.7884C142.328 45.3598 140.663 48.0474 139.176 50.8344C138.793 51.5644 138.285 52.1772 137.775 52.7906L137.775 52.7907C137.313 53.3477 136.85 53.9051 136.481 54.5512C135.864 55.7614 135.106 56.8939 134.222 57.9247C132.552 59.7157 130.751 61.3793 128.834 62.9015C122.385 67.9446 115.209 71.7097 107.668 74.7975C107.31 74.9442 106.953 75.0951 106.595 75.246L106.595 75.2463L106.594 75.2463L106.594 75.2463L106.594 75.2464L106.594 75.2464L106.594 75.2464L106.594 75.2465L106.594 75.2465L106.594 75.2465C104.632 76.0746 102.661 76.9067 100.48 77.0773C99.6714 77.0966 98.8749 77.2789 98.1382 77.6134C96.7873 78.3259 95.3335 78.8227 93.8294 79.086C92.0901 79.4108 90.3841 79.8609 88.6769 80.3114L88.6768 80.3114C87.2844 80.6788 85.8912 81.0464 84.4785 81.3464C79.3874 82.4283 74.29 83.4641 69.1485 84.2422C67.7152 84.4591 66.3024 84.7673 64.8889 85.0757L64.8888 85.0757L64.8888 85.0757L64.8887 85.0757L64.8886 85.0757L64.8886 85.0757L64.8885 85.0757L64.8884 85.0757L64.8884 85.0757H64.8883C63.2167 85.4403 61.5443 85.8051 59.8361 86.0195C58.3951 86.2008 56.9965 86.7364 55.6004 87.2711C55.0429 87.4846 54.4857 87.6979 53.9264 87.8885C44.6597 91.0457 36.4196 95.8097 30.171 103.521C29.8065 103.971 29.3425 104.229 28.8852 104.484C28.3487 104.782 27.8214 105.076 27.4753 105.668C24.5917 110.602 21.6412 115.495 18.4848 120.263C16.3139 123.543 14.9407 127.186 13.5672 130.83C12.8424 132.753 12.1175 134.677 11.2753 136.547L11.2333 136.64L11.1958 136.724L11.1953 136.725C10.781 137.651 10.7588 137.701 9.64313 138.341C9.55595 138.391 9.51945 138.536 9.48434 138.676L9.48429 138.676C9.4712 138.728 9.45829 138.779 9.44301 138.824C9.07084 139.925 8.6676 141.015 8.26439 142.105L8.26434 142.105C7.43978 144.335 6.61533 146.564 6.05693 148.88C5.97191 149.233 5.88209 149.586 5.7922 149.939C5.33283 151.743 4.8717 153.554 5.04056 155.444C5.74776 163.314 9.65523 169.268 16.1229 173.596C19.7693 176.036 23.8429 177.602 27.9848 178.978C36.4776 181.827 45.4762 182.842 54.3879 181.956C57.9839 181.605 61.5676 181.152 65.1518 180.699C70.5076 180.023 75.8643 179.346 81.2638 179.008C90.0548 178.391 98.8809 179.543 107.222 182.395C117.329 185.883 126.864 190.639 136.364 195.48C142.878 198.798 149.498 201.878 156.52 203.981C166.396 206.938 176.39 207.223 186.505 205.347C192.613 204.227 198.637 202.687 204.534 200.739C220.686 195.372 235.748 187.836 249.472 177.688C255.73 173.06 261.416 167.871 265.834 161.394C268.811 157.026 271.459 152.494 272.958 147.375C273.837 144.371 274.28 141.334 273.49 138.239C272.527 134.444 270.889 130.854 268.655 127.641C268.504 127.423 268.351 127.207 268.197 126.992C266.932 126.617 265.7 126.138 264.481 125.634C264.317 125.567 264.153 125.499 263.988 125.431C263.842 125.372 263.697 125.312 263.551 125.252C261.512 124.418 259.467 123.581 257.559 122.455L257.529 122.437C256.874 122.05 256.872 122.049 257.178 121.137C257.554 121.324 257.928 121.514 258.302 121.705L258.303 121.705L258.303 121.705L258.304 121.706L258.305 121.706L258.305 121.706C259.173 122.148 260.038 122.589 260.926 122.981C261.618 123.287 262.336 123.534 263.085 123.792C263.426 123.909 263.772 124.028 264.126 124.156C264.075 123.79 263.811 123.487 263.455 123.388C261.171 122.629 258.963 121.656 256.86 120.48L257.093 119.864C257.114 119.866 257.145 119.869 257.186 119.873C257.259 119.879 257.366 119.888 257.511 119.901L257.033 119.244L258.056 118.135C258.245 118.099 258.457 118.157 258.685 118.219C259.035 118.314 259.42 118.419 259.81 118.208C260.113 118.653 260.574 118.757 261.034 118.861C261.125 118.881 261.217 118.902 261.307 118.925ZM95.1464 180.988C90.196 180.193 85.1684 179.996 80.1715 180.4C74.1736 180.843 68.2077 181.58 62.2484 182.385C60.6868 182.596 59.1202 182.776 57.5534 182.956C55.8931 183.146 54.2326 183.337 52.5777 183.565C52.3206 183.6 52.0528 183.568 51.7811 183.535C51.2247 183.468 50.652 183.4 50.1218 183.906C52.4055 183.996 54.6927 183.885 56.9571 183.576C59.2787 183.3 61.5973 183 63.916 182.7H63.9161C68.6766 182.083 73.4371 181.467 78.223 181.067C83.8504 180.536 89.514 180.51 95.1464 180.988ZM194.009 1.57889C199.599 1.5505 205.165 2.30749 210.545 3.82774C205.31 1.69706 199.622 0.923571 194.009 1.57889ZM103.801 69.1109C109.891 67.0033 115.633 63.9972 120.836 60.192C115.322 63.4803 109.604 66.3765 103.801 69.1109ZM35.065 90.8761C30.3079 94.1136 25.9182 97.7336 22.9696 102.807C26.5323 98.38 30.5906 94.3767 35.065 90.8761ZM164.913 207.49L164.913 207.49L164.897 207.488C164.31 207.432 163.723 207.376 163.135 207.322C169.008 208.759 175.12 208.921 181.06 207.796C175.656 208.516 170.285 208.003 164.913 207.49ZM186.35 2.66097C186.286 2.59102 186.195 2.49237 186.063 2.36128C186.572 2.27819 187.069 2.19663 187.559 2.11643L187.562 2.11593L187.564 2.11555L187.565 2.11544C189.314 1.82892 190.957 1.55972 192.601 1.30019C192.822 1.26544 193.073 1.32294 193.059 1.63702C193.052 1.72879 193.007 1.81349 192.936 1.87121C192.864 1.92894 192.772 1.9546 192.681 1.94215C190.599 2.00726 188.529 2.29348 186.508 2.79601C186.48 2.80213 186.442 2.76075 186.35 2.66097ZM122.197 66.543C124.424 65.4776 126.473 64.074 128.272 62.3821L122.197 66.543ZM73.5339 183.958C73.244 185.124 72.1278 185.463 69.6923 185.286C70.2372 184.888 70.844 184.921 71.4316 184.954C72.2392 184.999 73.0103 185.043 73.5339 183.958ZM65.2979 186.994L65.3109 186.822L59.9729 187.383L59.9906 187.552L65.2979 186.994ZM101.836 115.828V115.828V115.828C101.834 115.542 101.832 115.285 101.845 115.028C101.862 114.89 101.905 114.757 101.97 114.635C102.049 114.463 102.209 114.442 102.373 114.421C102.552 114.398 102.735 114.374 102.823 114.157C102.947 113.818 103.145 113.512 103.401 113.259C103.503 113.169 103.682 113.128 103.846 113.092C104.025 113.051 104.187 113.015 104.217 112.922C104.348 112.522 104.468 112.342 104.905 112.438C104.984 112.455 105.121 112.299 105.205 112.201L105.21 112.195C105.822 111.473 105.823 111.472 106.758 111.914L106.549 111.228C106.85 111.405 107.139 111.602 107.414 111.819C107.685 112.081 107.936 112.364 108.164 112.665C108.378 112.997 108.67 113.273 109.013 113.468L108.299 112.244L108.416 112.151C108.593 112.33 108.761 112.517 108.919 112.712C109.174 113.059 109.423 113.41 109.672 113.761L109.672 113.762L109.672 113.762L109.672 113.762L109.672 113.762L109.672 113.762L109.672 113.762L109.673 113.762L109.673 113.762L109.673 113.762L109.673 113.762L109.673 113.763L109.673 113.763L109.673 113.763L109.673 113.763L109.673 113.763L109.673 113.763L109.673 113.763L109.673 113.763L109.673 113.763L109.673 113.763L109.673 113.763L109.673 113.763L109.673 113.763C110.158 114.447 110.642 115.13 111.171 115.778C111.885 116.584 112.302 117.61 112.353 118.684C112.314 118.679 112.274 118.672 112.234 118.665C111.945 118.615 111.662 118.566 111.754 119.092C111.868 119.747 111.463 119.985 110.813 120.12C110.83 120.154 110.848 120.188 110.866 120.223C111.156 120.779 111.467 121.375 110.518 121.78L109.563 120.465L109.364 120.557L109.666 121.431L109.937 122.217C109.361 122.238 108.844 122.19 108.509 121.597C108.452 121.497 108.321 121.443 108.186 121.388L108.186 121.388C108.096 121.351 108.005 121.314 107.933 121.262L107.915 121.249C107.142 120.697 107.14 120.696 106.516 121.122C106.472 121.152 106.428 121.184 106.385 121.215M101.836 115.828V115.829ZM101.836 115.829C101.836 115.903 101.837 115.98 101.837 116.059ZM101.837 116.059C101.837 116.109 101.837 116.16 101.837 116.212ZM101.837 116.212C100.788 116.417 100.591 116.586 100.642 117.465ZM100.642 117.465L100.645 117.522ZM100.645 117.522C100.668 117.945 100.694 118.396 101.048 118.762ZM101.048 118.762C101.22 118.939 101.359 119.148 101.498 119.357ZM101.498 119.357L101.498 119.357ZM101.498 119.357C101.631 119.556 101.764 119.755 101.926 119.928ZM101.926 119.928C102.594 120.641 103.336 121.253 104.363 121.378ZM104.363 121.378C104.693 121.418 105.021 121.474 105.36 121.533ZM105.36 121.533C105.517 121.56 105.677 121.587 105.84 121.613ZM105.84 121.613L106.163 121.378ZM106.163 121.378C106.202 121.35 106.241 121.321 106.281 121.292ZM131.166 110.769C131.645 110.691 131.889 110.651 131.995 110.509C132.104 110.361 132.063 110.103 131.98 109.576C132.123 109.371 132.339 109.232 132.555 109.093C132.891 108.877 133.229 108.659 133.298 108.189C133.897 107.98 134.485 107.74 135.058 107.468C135.839 107.05 136.61 107.246 137.357 107.435C137.467 107.463 137.577 107.491 137.687 107.517C137.733 107.528 137.78 107.539 137.826 107.55C137.876 107.561 137.925 107.572 137.974 107.584L137.975 107.584L137.975 107.584C138.459 107.696 138.95 107.81 139.427 107.966C139.765 108.076 140.111 108.162 140.457 108.248C140.796 108.332 141.134 108.415 141.465 108.522C141.959 108.682 142.439 108.884 142.918 109.086C143.029 109.133 143.139 109.179 143.25 109.225C143.424 109.275 143.581 109.374 143.701 109.51C143.898 109.842 144.244 110.059 144.628 110.089M131.166 110.769C131.171 110.919 131.139 111.066 131.107 111.214ZM131.107 111.214C131.038 111.529 130.968 111.851 131.247 112.221ZM131.247 112.221C131.605 112.714 132.134 113.054 132.729 113.175ZM132.729 113.175C132.797 113.19 132.867 113.209 132.937 113.229ZM132.937 113.229C133.163 113.291 133.395 113.355 133.587 113.299ZM133.587 113.299C134.15 113.134 134.682 113.25 135.212 113.366ZM135.212 113.366C135.469 113.423 135.727 113.479 135.987 113.503ZM135.987 113.503C136.911 113.588 137.625 114.168 138.176 114.821ZM138.176 114.821C139.513 116.405 141.344 117.077 143.174 117.748ZM143.174 117.748L143.322 117.802ZM143.322 117.802C143.914 118.019 144.451 117.744 144.997 117.466ZM144.997 117.466C145.09 117.418 145.183 117.371 145.277 117.325ZM145.277 117.325L145.323 117.303ZM145.323 117.303C146.342 116.81 146.582 116.695 146.448 115.788ZM146.448 115.788L146.433 115.689ZM146.433 115.689C146.347 115.12 146.291 114.749 147.096 114.826ZM147.096 114.826C147.156 114.833 147.246 114.62 147.316 114.456ZM147.316 114.456L147.326 114.431ZM147.326 114.431C147.335 114.411 147.343 114.392 147.351 114.375ZM147.351 114.375C147.379 114.309 147.403 114.215 147.424 114.129ZM147.424 114.129C147.453 114.013 147.479 113.911 147.509 113.911ZM147.509 113.911C148.243 113.908 147.948 113.424 147.801 113.182ZM147.801 113.182L147.793 113.169ZM147.793 113.169C147.743 113.087 147.694 113.004 147.644 112.921ZM147.644 112.921L147.644 112.92ZM147.644 112.92C147.314 112.369 146.973 111.798 146.495 111.415ZM146.495 111.415C146.327 111.281 146.169 111.126 146.009 110.97ZM177.27 76.107L177.271 76.1046L177.273 76.0973C177.327 75.9443 177.381 75.7906 177.437 75.6363C177.343 75.5076 177.258 75.3626 177.172 75.217C176.981 74.894 176.789 74.5678 176.504 74.409C176.179 74.2278 175.872 74.0179 175.566 73.8079C175.053 73.4572 174.54 73.1059 173.941 72.8863C173.653 72.7809 173.357 72.71 173.065 72.6397L173.065 72.6397C172.765 72.5678 172.468 72.4965 172.185 72.3897C171.776 72.236 171.365 72.2151 170.956 72.1942C170.744 72.1834 170.533 72.1727 170.322 72.1435C169.815 72.0896 169.306 72.2202 168.889 72.5115C168.332 72.8673 167.916 73.3472 167.491 73.8385C167.298 74.0616 167.103 74.2871 166.891 74.5045L167.519 75.3692L166.385 75.3509C166.254 76.0717 166.524 76.6464 166.786 77.2055L166.786 77.2057C166.885 77.4173 166.984 77.6267 167.059 77.841L165.889 77.7691C165.92 78.1181 165.992 78.4624 166.105 78.7947C166.643 79.8511 167.638 80.3471 168.647 80.848C169.298 81.1268 169.985 81.311 170.687 81.3951C171.133 81.4773 171.584 81.4499 172.026 81.4229L172.026 81.4229C172.317 81.4052 172.604 81.3878 172.885 81.4017C173.541 81.4342 173.944 81.1523 174.355 80.8656L174.355 80.8655C174.494 80.7684 174.633 80.6707 174.784 80.5845C174.816 80.5662 174.848 80.5369 174.88 80.5084C174.93 80.4626 174.978 80.419 175.019 80.4268C175.85 80.5861 175.926 80.0299 176.003 79.4692L176.013 79.3915C176.07 79.1052 176.112 78.8162 176.139 78.5254C176.129 78.2609 176.1 77.9974 176.051 77.7371C176.15 77.7356 176.252 77.7407 176.343 77.7453L176.343 77.7453L176.343 77.7453C176.516 77.754 176.652 77.7609 176.67 77.7184C176.887 77.1922 177.077 76.6542 177.27 76.1077L177.27 76.107ZM143.973 134.611L145.823 137.157C145.633 136.492 145.255 135.956 144.879 135.422L144.878 135.422C144.794 135.302 144.71 135.182 144.627 135.061C144.586 135 144.535 134.941 144.484 134.881C144.312 134.68 144.134 134.473 144.289 134.177C144.479 133.771 144.731 133.396 145.035 133.067C145.143 132.961 145.578 133.081 145.784 133.22C145.996 133.421 146.174 133.655 146.312 133.913C146.336 133.874 146.357 133.836 146.376 133.8C146.395 133.764 146.412 133.73 146.428 133.698C146.489 133.578 146.535 133.487 146.608 133.445C146.703 133.391 146.833 133.357 146.957 133.324C147.137 133.276 147.303 133.232 147.334 133.137M143.973 134.611L143.718 134.717ZM143.718 134.717C143.798 134.937 143.861 135.176 143.923 135.415ZM143.923 135.415C144.066 135.958 144.209 136.5 144.552 136.832ZM144.552 136.832C144.696 136.97 144.835 137.118 144.976 137.267ZM144.976 137.267C145.421 137.739 145.88 138.226 146.545 138.472ZM146.545 138.472C146.936 138.617 147.311 138.817 147.684 139.017ZM147.684 139.017C148.551 139.48 149.416 139.942 150.498 139.72ZM150.498 139.72C151.056 140.196 151.667 140.061 152.253 139.932ZM152.253 139.932C152.411 139.897 152.567 139.863 152.719 139.841ZM152.719 139.841C153.706 139.699 154.736 139.51 155.179 138.356ZM155.179 138.356C155.474 137.588 155.804 136.835 156.132 136.089ZM156.132 136.089L156.132 136.089ZM156.132 136.089C156.275 135.763 156.417 135.438 156.555 135.115ZM156.555 135.115C156.258 134.759 155.989 134.381 155.749 133.985ZM155.749 133.985C155.332 133.157 154.543 132.772 153.784 132.552ZM153.784 132.552C153.34 132.424 152.953 132.149 152.684 131.772ZM152.684 131.772C152.233 131.549 151.793 131.534 151.367 131.52ZM151.367 131.52C150.991 131.507 150.624 131.495 150.269 131.34ZM150.269 131.34C149.87 131.231 149.445 131.309 149.113 131.552ZM149.113 131.552C148.927 131.704 148.715 131.827 148.501 131.951ZM173.326 130.42L176.122 130.872C176.207 131.364 176.345 131.845 176.533 132.308C176.637 132.505 176.849 132.645 177.062 132.786C177.165 132.854 177.268 132.922 177.36 132.998C179.281 134.578 181.092 134.502 182.914 133.406C183.217 133.202 183.449 132.908 183.578 132.565C183.797 131.985 183.985 131.393 184.173 130.801L184.173 130.8L184.173 130.8L184.173 130.8L184.174 130.8L184.174 130.8L184.174 130.799L184.174 130.799L184.174 130.799L184.174 130.799L184.174 130.799L184.174 130.798L184.174 130.798L184.174 130.798L184.174 130.798L184.174 130.798L184.174 130.797L184.174 130.797L184.174 130.797L184.175 130.797C184.293 130.424 184.411 130.051 184.537 129.682C184.698 129.163 184.547 128.596 184.149 128.223C183.387 127.516 182.558 126.884 181.676 126.335C180.216 125.393 178.53 125.11 176.852 124.942C176.164 124.873 175.499 125.14 174.848 125.401L174.847 125.401C174.694 125.463 174.542 125.524 174.391 125.58C173.947 125.744 173.808 126.212 173.689 126.657C173.624 126.784 173.513 126.882 173.379 126.931C172.814 127.194 172.904 127.623 172.99 128.032L172.99 128.033C173.005 128.103 173.019 128.172 173.03 128.239C172.998 128.243 172.963 128.245 172.927 128.246C172.9 128.247 172.872 128.248 172.844 128.249C172.694 128.252 172.543 128.256 172.514 128.317C172.405 128.549 172.286 128.896 172.387 129.083C172.669 129.55 172.982 129.996 173.326 130.42ZM210.211 171.609L209.553 170.996C209.937 171.529 209.873 172.102 209.808 172.673C209.758 173.115 209.709 173.556 209.869 173.976C209.92 174.141 209.895 174.32 209.8 174.465C209.706 174.609 209.552 174.703 209.381 174.721C208.958 174.674 208.867 174.933 208.793 175.147C208.784 175.173 208.775 175.198 208.766 175.221C208.595 175.755 208.097 176.114 207.536 176.11C207.463 176.117 207.389 176.124 207.316 176.131C207.25 176.138 207.184 176.144 207.118 176.151L207.117 176.151C205.461 176.317 203.812 176.483 202.217 175.728C201.366 175.84 200.641 175.504 199.916 175.169C199.577 175.012 199.239 174.855 198.887 174.744M210.211 171.609C210.103 171.108 209.931 170.741 209.381 170.579ZM209.381 170.579C209.03 170.475 208.712 170.294 208.392 170.111ZM208.392 170.111L208.392 170.111ZM208.392 170.111C207.959 169.865 207.522 169.616 206.995 169.551ZM206.995 169.551C206.667 169.536 206.341 169.482 206.024 169.391ZM206.024 169.391C204.172 168.609 202.316 168.757 200.44 169.16ZM200.44 169.16L200.397 169.169ZM200.397 169.169L200.367 169.176ZM200.367 169.176L200.366 169.176ZM200.366 169.176C200.15 169.22 199.861 169.28 199.831 169.391ZM199.831 169.391C199.738 169.746 199.499 169.811 199.245 169.88ZM199.245 169.88C199.185 169.896 199.123 169.913 199.063 169.934ZM199.063 169.934C198.887 169.995 198.633 170.131 198.609 170.27ZM198.609 170.27C198.527 170.736 198.29 171.11 198.051 171.487ZM198.051 171.487L198.051 171.487ZM198.051 171.487C198.024 171.531 197.996 171.574 197.969 171.618ZM197.969 171.618C197.945 171.656 197.921 171.694 197.898 171.733ZM197.898 171.733C197.836 171.836 197.728 172.042 198.041 172.141ZM198.041 172.141C198.194 172.191 198.32 172.326 198.464 172.48ZM198.464 172.48C198.534 172.555 198.608 172.634 198.691 172.711ZM198.691 172.711C197.903 172.84 197.333 173.06 197.355 173.78ZM197.355 173.78C197.528 173.893 197.692 174.014 197.854 174.134ZM129.519 154.512C128.708 154.912 127.728 154.717 127.124 154.037C126.922 153.83 126.707 153.634 126.491 153.438C126.013 153.001 125.531 152.562 125.177 151.988C124.508 150.908 123.759 149.88 122.937 148.912C122.727 148.665 122.642 148.382 122.558 148.103C122.482 147.853 122.408 147.605 122.245 147.389C122.155 147.269 122.153 146.915 122.235 146.863C122.555 146.658 122.664 146.334 122.775 146.004C122.884 145.681 122.995 145.35 123.309 145.119C123.596 144.908 123.747 144.514 123.908 144.097C123.983 143.903 124.059 143.704 124.152 143.516C124.472 143.567 124.754 143.394 125.049 143.214C125.499 142.939 125.977 142.646 126.659 143.105C126.845 143.707 127.383 143.993 127.943 144.291L127.943 144.291C128.227 144.442 128.517 144.596 128.769 144.795C128.815 144.831 128.874 144.854 128.932 144.877C129.008 144.906 129.081 144.935 129.122 144.99C129.799 145.905 130.468 146.827 131.172 147.798L131.172 147.798L131.173 147.798L131.187 147.818C131.374 148.076 131.564 148.338 131.757 148.603L130.977 148.525C131.067 148.604 131.143 148.681 131.21 148.749C131.338 148.88 131.432 148.976 131.527 148.978C131.612 148.98 131.695 148.91 131.781 148.837C131.852 148.777 131.926 148.714 132.006 148.689C132.085 148.664 132.243 148.81 132.327 148.91C132.365 148.956 132.339 149.138 132.294 149.157C132.046 149.272 131.791 149.372 131.522 149.478L131.521 149.479C131.437 149.512 131.351 149.546 131.264 149.58C131.387 150.192 131.518 150.845 131.616 151.333L130.872 151.792C131.303 151.863 131.255 152.102 131.204 152.347C131.187 152.434 131.169 152.522 131.172 152.604C131.197 152.914 131.238 153.222 131.294 153.528C130.494 153.986 129.867 153.706 129.206 153.212L129.519 154.512ZM255.693 146.197L255.693 146.197L255.693 146.197C255.789 146.136 255.886 146.075 255.982 146.009C256.237 146.208 256.493 146.411 256.749 146.615L256.75 146.616C257.332 147.079 257.922 147.548 258.536 147.982C258.746 148.131 258.954 148.282 259.163 148.433C260.199 149.183 261.237 149.935 262.446 150.402C263.427 150.781 263.542 150.737 264.286 149.814C264.403 149.667 264.543 149.54 264.7 149.438C265.256 149.087 265.54 148.719 265.086 148.039C264.924 147.708 264.876 147.334 264.948 146.974C265.068 146.094 264.691 145.331 264.333 144.619C263.865 143.688 263.614 143.556 262.594 143.02L262.405 142.92C262.21 142.818 262.026 142.691 261.842 142.565C261.575 142.38 261.309 142.197 261.014 142.09C259.499 141.542 257.968 141.048 256.307 141.292C256.106 141.321 255.883 141.201 255.711 141.109C255.646 141.074 255.589 141.043 255.543 141.026L254.799 141.769L254.634 141.671L254.901 140.873L254.229 140.771C254.18 140.917 254.121 141.062 254.062 141.208C253.931 141.533 253.799 141.859 253.769 142.194C253.746 142.46 253.785 142.741 253.824 143.018C253.877 143.397 253.929 143.77 253.818 144.093C253.68 144.495 253.668 144.891 253.656 145.283L253.656 145.283L253.656 145.283L253.656 145.283L253.655 145.283L253.655 145.283L253.655 145.283L253.655 145.284V145.284C253.648 145.512 253.642 145.739 253.61 145.966C253.484 146.859 253.884 147.285 254.861 147.584C254.692 146.827 255.166 146.529 255.692 146.197L255.693 146.197ZM231.526 143.886C231.384 143.902 231.242 143.919 231.101 143.936C230.322 144.028 229.555 144.119 228.77 143.989C228.204 143.894 227.634 143.813 227.065 143.731L227.065 143.731L227.064 143.731C225.895 143.563 224.726 143.395 223.583 143.119C223.399 143.075 223.215 143.031 223.031 142.987C221.421 142.605 219.803 142.22 218.415 141.409C218.262 141.136 218.431 141.009 218.6 140.881C218.784 140.742 218.969 140.602 218.742 140.275C218.655 140.15 218.779 139.874 218.902 139.603C218.954 139.488 219.006 139.373 219.041 139.272C219.331 138.425 219.61 138.114 220.378 138.263C221.069 138.374 221.775 138.257 222.391 137.93C223.04 137.641 223.724 137.64 224.409 137.639H224.409C224.774 137.639 225.138 137.639 225.497 137.595C226.316 137.495 227.116 137.632 227.916 137.769C228.198 137.817 228.48 137.866 228.763 137.904C228.986 137.934 229.213 137.943 229.439 137.952C229.784 137.966 230.128 137.98 230.453 138.067C231.011 138.197 231.534 138.449 231.985 138.805C232.238 139.024 232.331 139.566 232.301 139.947C232.29 140.089 232.299 140.233 232.308 140.379C232.33 140.716 232.351 141.059 232.12 141.377C231.971 141.581 232.082 141.781 232.196 141.985C232.228 142.044 232.261 142.104 232.288 142.164C232.427 142.473 232.588 142.85 231.885 142.849C231.393 142.851 231.363 143.379 231.526 143.886ZM269.635 101.741L269.685 101.764C270.974 102.346 272.293 102.941 274.019 102.527C274.011 102.284 274.018 102.042 274.041 101.8C274.088 101.501 274.273 101.518 274.456 101.535C274.548 101.543 274.64 101.551 274.715 101.52C275.074 101.367 275.417 100.447 275.22 100.071C275.052 99.8404 274.993 99.5486 275.056 99.2715C275.152 98.9604 275.164 98.6369 275.177 98.3129C275.192 97.9122 275.208 97.5109 275.38 97.1315C275.448 97.0276 275.457 96.8951 275.402 96.7828C275.347 96.6705 275.238 96.5949 275.114 96.584C274.979 96.5637 274.854 96.4991 274.759 96.4005C274.33 95.9127 273.811 95.5127 273.231 95.2228C271.96 94.5605 270.616 94.5088 269.243 94.5941C269.063 94.5991 268.883 94.6238 268.708 94.6678L268.671 94.6786C267.181 95.1151 267.169 95.1185 265.829 94.666C265.582 94.5829 265.343 94.4798 265.139 94.3922L265.138 94.3916C265.055 94.356 264.978 94.3231 264.91 94.2951L263.945 95.3232C264.064 95.5669 264.182 95.8115 264.296 96.0449L263.211 96.1799C263.746 96.6335 264.294 96.9805 264.826 97.3178L264.826 97.3181C265.52 97.7575 266.187 98.1805 266.767 98.8007C266.114 98.7205 265.6 98.4081 265.102 98.1054C264.555 97.7728 264.027 97.452 263.355 97.4634C263.804 98.56 264.7 99.0572 265.576 99.5442C265.821 99.68 266.064 99.8149 266.295 99.9617C267.366 100.633 268.482 101.228 269.635 101.741ZM215.735 102.62L215.102 103.262L215.788 103.596L215.319 106.619C215.204 106.688 215.095 106.769 214.994 106.859C213.851 108.066 212.421 107.951 211.024 107.574C209.921 107.28 208.859 106.844 207.865 106.279C207.238 105.919 206.666 105.583 206.311 104.733C207.357 105.329 208.289 105.859 209.22 106.39L209.366 106.189C209.24 106.047 209.1 105.918 208.948 105.805C208.678 105.64 208.404 105.482 208.129 105.324C207.739 105.1 207.35 104.875 206.971 104.632C206.938 104.611 206.903 104.591 206.868 104.569C206.595 104.408 206.293 104.229 206.7 103.773C206.798 103.663 206.749 103.422 206.699 103.181C206.677 103.072 206.655 102.964 206.646 102.867C206.627 102.669 206.606 102.47 206.587 102.292L206.587 102.291L206.587 102.291L206.587 102.29L206.587 102.289L206.587 102.288L206.568 102.106C206.892 101.821 207.154 101.908 207.426 101.998C207.585 102.05 207.748 102.104 207.928 102.085L206.926 101.265L207.198 100.278L207.242 100.285C207.494 100.327 207.817 100.381 207.69 99.842C207.545 99.2251 207.704 98.8277 208.406 98.7925C208.47 98.7893 208.574 98.7447 208.587 98.7015C208.804 97.853 209.449 98.0611 209.955 98.2246L209.968 98.2288C210.944 98.5438 211.79 99.1174 212.632 99.688C212.839 99.8279 213.045 99.9675 213.252 100.103C213.5 100.265 214.068 100.655 213.46 101.135C213.436 101.154 213.483 101.26 213.529 101.366C213.543 101.399 213.557 101.432 213.569 101.462C213.576 101.477 213.581 101.492 213.586 101.506C213.614 101.495 213.646 101.484 213.68 101.473C213.704 101.466 213.73 101.458 213.756 101.45C213.887 101.411 214.019 101.372 214.028 101.313C214.02 101.153 214.124 101.01 214.278 100.967C214.431 100.924 214.595 100.994 214.672 101.134C214.745 101.446 214.972 101.638 215.199 101.829C215.449 102.041 215.699 102.251 215.735 102.62ZM193.91 80.5364L193.066 80.3998C192.876 80.732 192.83 81.1285 192.939 81.4972C193.049 81.8659 193.304 82.1744 193.645 82.3509C193.766 82.4248 193.89 82.4914 194.014 82.5575L194.014 82.5576C194.417 82.7734 194.812 82.9845 195.043 83.4274C195.5 83.3888 195.816 83.6374 196.131 83.8861C196.323 84.0373 196.515 84.1886 196.739 84.2753C196.9 84.3375 197.059 84.4047 197.218 84.4719C197.437 84.5644 197.656 84.6568 197.879 84.7361L198.006 84.781L198.22 84.8573C198.888 85.0959 199.557 85.3348 200.239 85.5249C200.607 85.584 200.98 85.6028 201.352 85.5809C202.431 85.6319 203.182 85.0284 203.93 84.4284L203.931 84.428C204.132 84.266 204.334 84.1043 204.542 83.9558C204.651 83.8779 204.66 83.6612 204.668 83.4695V83.4692C204.672 83.3883 204.675 83.3118 204.685 83.2521C204.381 83.0809 204.112 82.93 203.847 82.7808L203.263 82.4527C204.1 82.0442 204.365 81.8052 205.077 80.8672C205.078 80.6345 204.905 80.5437 204.723 80.4485C204.514 80.3388 204.295 80.2233 204.317 79.878C204.335 79.5877 203.808 79.525 203.481 79.6905C203.277 79.8125 203.083 79.9504 202.901 80.1032L199.867 79.6133L199.856 79.6023L199.836 79.5831C199.813 79.5605 199.79 79.5381 199.77 79.5134L198.866 78.4041C198.464 78.7325 198.25 78.4858 198.042 78.245C197.943 78.1309 197.845 78.0182 197.729 77.9686C197.654 77.9364 197.575 77.9003 197.494 77.8635L197.493 77.8629L197.492 77.8626L197.492 77.8624C197.099 77.6828 196.668 77.4857 196.42 77.6349C196.152 77.7959 195.994 77.6718 195.857 77.565C195.759 77.4874 195.671 77.4189 195.562 77.4752C195.217 77.6531 194.9 77.8814 194.623 78.1528C194.304 78.4656 194.008 78.802 193.718 79.1322C193.595 79.2717 193.473 79.4101 193.351 79.5452C193.464 79.7441 193.57 79.9332 193.683 80.1327L193.703 80.169L193.91 80.5364ZM143.888 89.2539L144.977 88.4629C145.016 88.4346 145.055 88.4055 145.093 88.3765L145.095 88.3754C145.475 88.0903 145.853 87.8067 146.343 88.2977C146.457 88.3555 146.593 88.35 146.702 88.283C147.003 87.9876 147.318 88.0657 147.631 88.1435C147.78 88.1807 147.93 88.2177 148.077 88.214C149.175 88.183 149.927 88.842 150.664 89.4878C150.758 89.5703 150.852 89.6525 150.947 89.7331C151.422 90.1383 151.52 90.6056 151.207 91.344C151.116 91.561 151.006 91.776 150.895 91.9929C150.583 92.6047 150.264 93.2321 150.313 93.9654C150.181 94.065 150.111 94.2318 150.041 94.399C149.913 94.7049 149.784 95.0121 149.275 94.9117C149.137 94.9093 149.003 94.9576 148.899 95.0475C147.431 96.1578 145.876 95.9742 144.264 95.3935C144.076 95.3254 143.884 95.2645 143.693 95.2037L143.692 95.2035C143.055 95.0008 142.419 94.7987 141.901 94.335C141.625 94.0845 141.367 93.8148 141.129 93.5277C141.051 93.4354 140.985 93.2232 141.036 93.1493C141.259 92.8213 141.385 92.4478 141.511 92.0771C141.634 91.7125 141.756 91.3506 141.969 91.0377C142.463 90.3029 143.12 89.6926 143.888 89.2539ZM184.992 148.657C184.462 148.446 184.19 148.337 183.819 148.19C183.657 149.236 183.661 149.239 184.241 149.566L184.265 149.579C184.966 149.963 185.77 150.115 186.56 150.014C187.07 149.975 187.575 150.145 187.96 150.485C188.909 151.173 189.928 151.756 191.001 152.226C191.313 152.371 191.679 152.395 192.047 152.418H192.047C192.245 152.431 192.444 152.444 192.636 152.476C192.901 152.519 193.063 152.342 193.223 152.165C193.408 151.962 193.591 151.76 193.928 151.896C193.923 151.734 194.036 151.617 194.151 151.498C194.319 151.323 194.491 151.144 194.299 150.818C194.211 150.596 194.238 150.346 194.372 150.149C194.793 149.689 194.659 149.304 194.321 148.9L194.807 148.623C194.73 148.516 194.659 148.398 194.588 148.28C194.433 148.022 194.277 147.763 194.049 147.614C192.101 146.337 190.035 145.3 187.674 145.122C187.042 145.117 186.416 145.236 185.832 145.473C185.3 145.632 184.96 146.149 185.02 146.702C185.024 146.747 184.957 146.8 184.895 146.848C184.884 146.857 184.873 146.866 184.862 146.874C184.853 146.882 184.844 146.89 184.835 146.897L184.834 146.899C184.539 147.162 184.404 147.283 184.388 147.419C184.373 147.534 184.445 147.66 184.578 147.892L184.579 147.894C184.632 147.988 184.683 148.083 184.772 148.247L184.772 148.248L184.772 148.248C184.816 148.33 184.869 148.428 184.935 148.551C184.953 148.585 184.972 148.62 184.992 148.657ZM195.895 118.328C195.776 118.197 195.674 118.05 195.593 117.892C195.57 117.836 195.587 117.761 195.604 117.687C195.622 117.611 195.64 117.535 195.612 117.481C195.581 117.421 195.509 117.384 195.437 117.346C195.371 117.312 195.303 117.277 195.264 117.224C195.229 117.177 195.222 117.101 195.216 117.029V117.029C195.209 116.95 195.202 116.876 195.16 116.848C194.998 116.752 194.814 116.699 194.627 116.694C194.473 116.72 194.326 116.773 194.19 116.849L194.323 116.952C194.524 117.11 194.698 117.245 194.872 117.38C194.818 117.384 194.764 117.389 194.71 117.394L194.71 117.394C194.164 117.444 193.638 117.491 193.416 116.796L194.139 116.634C193.853 116.154 193.592 116.291 193.315 116.437C193.137 116.531 192.951 116.628 192.748 116.566C192.955 116.45 193.075 116.28 193.195 116.111C193.317 115.938 193.439 115.765 193.654 115.649C193.786 115.578 193.809 115.306 193.835 114.995C193.848 114.842 193.862 114.68 193.89 114.528L195.982 114.652C195.931 114.55 195.884 114.457 195.839 114.368C195.795 114.28 195.753 114.196 195.711 114.113L195.71 114.111L195.644 113.98L195.545 113.784L197.034 112.188C197.216 112.241 197.389 112.295 197.557 112.347L197.557 112.347L197.557 112.347C197.926 112.462 198.268 112.569 198.617 112.634C198.829 112.674 199.047 112.677 199.265 112.681L199.265 112.681C199.501 112.685 199.737 112.688 199.963 112.738C201.193 113.006 202.198 113.743 203.166 114.491C203.513 114.758 204.013 115.215 203.434 115.776C203.727 116.175 203.591 116.552 203.453 116.932C203.377 117.144 203.299 117.357 203.297 117.576C203.287 118.34 202.695 118.9 201.781 119.126C200.412 119.464 199.114 119.139 197.851 118.82C197.647 118.769 197.441 118.723 197.232 118.678C196.794 118.581 196.346 118.482 195.895 118.328ZM227.241 119.372L226.512 119.597C226.541 119.762 226.519 119.938 226.496 120.119C226.45 120.479 226.402 120.86 226.753 121.22L226.048 121.183C226.163 121.31 226.262 121.442 226.354 121.565L226.354 121.565L226.354 121.565C226.535 121.806 226.689 122.011 226.888 122.077C228.082 122.491 229.301 122.827 230.537 123.084C231.217 123.184 231.909 123.152 232.576 122.99C232.749 122.955 232.883 122.757 233.021 122.554L233.022 122.554L233.022 122.554C233.1 122.438 233.18 122.321 233.269 122.23C233.689 121.804 233.689 121.256 233.611 120.75C233.594 120.638 233.552 120.537 233.511 120.438C233.415 120.209 233.322 119.986 233.539 119.638C233.728 119.334 233.483 118.656 233.266 118.23C233.044 117.882 232.725 117.605 232.349 117.436C231.72 117.066 231.039 116.791 230.33 116.622C230.044 116.573 229.777 116.471 229.51 116.368C229.093 116.208 228.674 116.047 228.173 116.086C227.653 116.126 227.116 115.968 226.59 115.812C226.361 115.745 226.134 115.678 225.912 115.628L225.912 115.628C225.591 115.863 225.411 115.994 225.304 116.17C225.167 116.395 225.15 116.692 225.109 117.367C225.547 117.445 225.943 117.676 226.228 118.018C225.884 117.947 225.536 117.894 225.186 117.859C224.96 117.879 224.736 117.923 224.52 117.992C224.893 118.367 225.353 118.471 225.809 118.575C226.344 118.696 226.873 118.816 227.241 119.372ZM251.932 167.624L251.051 167.734C251.485 168.891 251.457 168.988 250.422 169.209L251.915 170.1L251.554 170.919L249.487 170.585C249.578 171.003 249.887 171.119 250.203 171.239C250.465 171.338 250.733 171.439 250.885 171.715C250.341 172.24 249.69 172.106 249.06 171.976L248.99 171.962C248.819 171.927 248.654 171.856 248.49 171.786L248.49 171.786C248.313 171.711 248.136 171.635 247.951 171.604C246.372 171.327 244.814 170.933 243.292 170.426C243.15 170.389 243.006 170.365 242.861 170.353L242.754 170.339C242.009 170.238 241.265 170.138 240.734 169.476C240.936 168.985 241.334 169.051 241.745 169.119C241.781 169.125 241.817 169.131 241.853 169.136C241.921 169.147 241.988 169.156 242.055 169.162C242.016 168.72 241.734 168.692 241.456 168.665C241.256 168.645 241.058 168.626 240.954 168.453C240.817 168.239 240.994 168.109 241.17 167.98C241.396 167.816 241.62 167.653 241.18 167.315L242.458 166.387C242.517 166.386 242.576 166.385 242.635 166.384L242.767 166.383L242.966 166.38L242.967 166.38L242.968 166.38H242.968L242.968 166.379H242.969H242.969L242.972 166.379C243.355 166.374 243.74 166.368 244.124 166.369C244.343 166.37 244.556 166.402 244.77 166.435C245.102 166.486 245.439 166.538 245.806 166.473C246.175 166.407 246.569 166.498 246.967 166.589C247.201 166.643 247.437 166.697 247.67 166.72C247.74 166.727 247.809 166.738 247.878 166.751C247.922 166.759 247.966 166.768 248.01 166.777C248.298 166.836 248.588 166.895 248.926 166.759C249.06 166.705 249.214 166.723 249.375 166.742C249.625 166.771 249.894 166.802 250.134 166.575C250.243 166.471 250.623 166.532 250.799 166.644C251.198 166.945 251.577 167.272 251.932 167.624ZM186.526 93.8396C186.421 93.9433 186.31 94.0522 186.165 94.1437C186.169 93.7412 186.174 93.3384 186.177 92.9795L185.881 92.8497C185.643 92.7459 185.408 92.6428 185.071 92.4953L185.154 93.0532L185.202 93.3775C185.114 93.3793 185.027 93.3809 184.939 93.3822L184.855 93.0714C184.82 92.9411 184.785 92.8093 184.748 92.6741C184.64 92.6566 184.511 92.6513 184.38 92.646H184.379C184.083 92.6338 183.775 92.6213 183.663 92.4667C183.406 92.1126 183.266 92.3087 183.155 92.4645C183.085 92.5622 183.027 92.6441 182.958 92.5644C182.594 92.144 182.484 92.3143 182.341 92.5351C182.236 92.6965 182.114 92.8849 181.863 92.8893L181.457 92.7378C181.384 92.9437 181.314 93.145 181.245 93.3427L181.244 93.3436L181.244 93.3447C181.077 93.823 180.918 94.2801 180.74 94.7302C180.658 94.9885 180.511 95.2208 180.312 95.4043C180.029 95.6173 180.053 95.7685 180.099 96.0577C180.106 96.0994 180.113 96.144 180.12 96.1921C180.267 97.2367 180.989 97.6542 181.717 98.0754C181.843 98.1486 181.97 98.2218 182.094 98.2985C182.15 98.3335 182.279 98.2513 182.415 98.1639C182.481 98.1217 182.548 98.0783 182.61 98.0463C182.414 97.808 182.144 97.686 181.882 97.5683C181.488 97.3907 181.115 97.2229 181.054 96.68C182.311 97.0607 182.336 97.092 183.357 98.5103C183.412 98.5868 183.559 98.5972 183.714 98.6081C183.788 98.6133 183.863 98.6186 183.931 98.6314L183.886 98.3971L183.803 97.9686C184.013 97.9879 184.206 98.0573 184.398 98.1261C184.713 98.2389 185.024 98.3502 185.394 98.2364C186.365 97.9385 186.399 97.966 187.073 98.4992L187.126 98.5405C187.174 98.3644 187.254 98.199 187.362 98.0523C187.411 98.0082 187.496 98.0038 187.581 97.9993C187.667 97.9948 187.753 97.9903 187.802 97.9455C188.015 97.7769 188.181 97.5567 188.285 97.3054C188.353 97.0782 188.354 96.8394 188.355 96.5989C188.355 96.2589 188.356 95.9155 188.548 95.5963C188.608 95.4976 188.495 95.2069 188.376 95.1045C188.038 94.8141 187.682 94.5436 187.325 94.2734L187.325 94.2733L187.325 94.2731L187.325 94.2729L187.325 94.2727L187.324 94.2725L187.323 94.2713C187.191 94.1713 187.059 94.0713 186.928 93.9704L187.283 93.4614C186.911 93.4612 186.728 93.6407 186.526 93.8396ZM172.275 158.391L170.88 157.998L171.028 158.831C170.456 158.918 169.87 158.85 169.33 158.636C168.757 158.441 168.201 158.202 167.644 157.964L167.644 157.963C167.067 157.716 166.489 157.468 165.891 157.268C165.168 157.026 164.689 156.412 164.356 155.656C164.626 155.362 164.937 155.432 165.263 155.506C165.49 155.557 165.725 155.61 165.957 155.542L165.117 154.387L167.281 152.294C168.48 152.412 169.638 152.806 170.665 153.444C170.903 153.59 171.163 153.686 171.426 153.784C171.798 153.922 172.174 154.061 172.497 154.344C172.572 154.41 172.613 154.514 172.654 154.619C172.733 154.819 172.813 155.022 173.127 154.962C173.165 155.08 173.196 155.2 173.221 155.321C172.839 155.431 172.768 155.75 172.697 156.07C172.63 156.369 172.564 156.668 172.245 156.799C172.204 156.816 172.255 157.076 172.286 157.24L172.286 157.24L172.292 157.268C172.344 157.439 172.387 157.614 172.419 157.791C172.394 157.996 172.346 158.197 172.275 158.391ZM210.081 154.512L208.825 153.765C208.684 153.867 208.542 153.968 208.398 154.07C208.073 154.301 207.743 154.535 207.427 154.787C206.943 155.174 207.033 155.512 207.658 155.876C207.726 155.916 207.765 156.006 207.807 156.1C207.826 156.144 207.846 156.19 207.87 156.232C207.783 156.252 207.692 156.263 207.603 156.273C207.265 156.313 206.945 156.351 206.918 156.889C207.095 156.978 207.271 157.078 207.448 157.178L207.448 157.178L207.449 157.178C207.857 157.41 208.273 157.645 208.72 157.766C209.324 157.918 209.89 158.196 210.38 158.582L210.005 159.592C210.635 159.714 211.238 159.75 211.828 159.786L211.828 159.786H211.828C212.189 159.808 212.545 159.83 212.898 159.87C213.754 159.969 214.283 159.676 214.551 158.799L214.168 158.272L214.691 157.792L214.587 157.19L214.466 156.482L215.585 156.287C215.187 155.904 214.921 155.648 214.629 155.366L214.699 155.195L214.699 155.194C214.79 154.976 214.885 154.746 214.973 154.513C214.979 154.498 214.959 154.473 214.918 154.422C214.891 154.39 214.856 154.346 214.814 154.288L213.813 154.271C213.827 154.352 213.855 154.508 213.884 154.676L213.905 154.796C213.414 155.039 212.834 155.02 212.357 154.746C212.076 154.589 211.775 154.473 211.463 154.398C210.962 154.308 210.492 154.09 210.1 153.764C210.071 153.741 210.015 153.752 209.957 153.763L209.957 153.763C209.94 153.767 209.922 153.77 209.905 153.773C209.896 153.774 209.887 153.775 209.879 153.776L210.081 154.512ZM178.668 182.844L179.835 183.272C179.822 183.232 179.811 183.194 179.802 183.158C179.794 183.13 179.788 183.103 179.781 183.077C179.755 182.969 179.735 182.885 179.682 182.835C179.397 182.565 179.1 182.307 178.782 182.03C178.664 181.927 178.543 181.822 178.418 181.712L179.104 181.214C179.254 181.295 179.436 181.394 179.799 181.591L179.094 180.621C179.189 180.512 179.27 180.391 179.334 180.261C179.371 180.141 179.404 179.972 179.433 179.821L179.433 179.821L179.433 179.82C179.47 179.631 179.502 179.471 179.528 179.472C179.817 179.49 180.026 179.346 180.229 179.206C180.363 179.114 180.493 179.024 180.642 178.984C181.197 178.837 181.82 178.83 182.219 179.39C182.276 179.47 182.286 179.59 182.296 179.707C182.307 179.834 182.317 179.957 182.387 180.017C182.444 180.065 182.555 180.038 182.676 180.008L182.676 180.008C182.79 179.979 182.912 179.949 183.002 179.98C183.179 180.063 183.303 180.23 183.331 180.424C183.217 180.841 183.441 181.099 183.659 181.351L183.659 181.351C183.686 181.382 183.712 181.412 183.738 181.443C184.026 181.72 184.044 182.176 183.777 182.471C183.499 182.826 183.582 183.111 183.753 183.501C184.033 184.03 183.848 184.683 183.335 184.982C183.135 185.109 182.952 185.26 182.79 185.434C182.397 185.877 181.724 186.193 181.326 185.953C181.127 185.833 180.924 185.721 180.72 185.608C179.927 185.169 179.132 184.728 178.635 183.883C178.416 183.511 178.515 183.249 178.628 182.95L178.653 182.886L178.668 182.844ZM202.162 133.595L200.978 134.016C201.157 134.889 201.726 135.152 202.375 135.095C203.4 134.996 204.435 135.161 205.381 135.574L205.421 135.591C205.712 135.718 206.125 135.897 206.442 135.527L206.366 135.117L206.292 134.722L207.107 135.081C207.573 134.669 207.418 134.328 207.27 134.003C207.206 133.863 207.143 133.725 207.132 133.586C207.531 133.483 207.563 133.172 207.595 132.863C207.629 132.538 207.662 132.214 208.123 132.135C208.028 132.027 207.941 131.905 207.86 131.79L207.86 131.79C207.697 131.56 207.554 131.359 207.403 131.352C206.855 131.327 206.412 131.072 205.973 130.818C205.656 130.636 205.341 130.455 204.99 130.361C204.736 130.267 204.461 130.251 204.2 130.317C204.046 130.383 203.862 130.331 203.685 130.28C203.418 130.204 203.167 130.133 203.064 130.488C202.982 130.774 202.756 130.814 202.541 130.852C202.324 130.89 202.118 130.926 202.083 131.214L202.428 131.934C202.281 132.079 202.08 132.104 201.883 132.128C201.597 132.163 201.322 132.196 201.24 132.598C201.824 132.696 202.044 133.097 202.162 133.595ZM172.333 106.657L171.694 108.925L170.703 109.645C170.406 109.54 170.127 109.383 169.846 109.225C169.379 108.962 168.908 108.698 168.342 108.666C167.805 108.034 167.076 107.874 166.336 107.712L166.335 107.712C166.211 107.685 166.087 107.658 165.964 107.628C165.779 107.584 165.625 107.411 165.454 107.217C165.37 107.123 165.282 107.023 165.184 106.932C165.23 106.874 165.28 106.821 165.327 106.771C165.419 106.676 165.5 106.592 165.518 106.495C165.805 104.985 167.005 104.845 168.149 104.902C169.142 104.976 170.118 105.204 171.043 105.578C171.408 105.717 171.708 106.029 171.986 106.316L171.986 106.316C172.105 106.44 172.219 106.558 172.333 106.657Z" fill="#F5D3AB"/>
</svg>
