<svg width="188" height="214" viewBox="0 0 188 214" fill="none" xmlns="http://www.w3.org/2000/svg">
<path fill-rule="evenodd" clip-rule="evenodd" d="M186.957 212.791C185.464 212.674 184.014 212.917 182.565 213.16C182.026 213.25 181.488 213.34 180.947 213.412C182.967 213.422 184.982 213.214 186.957 212.791ZM187.761 212.885L186.997 212.79C187.128 212.429 187.444 212.367 187.762 212.334C190.935 211.934 194.074 211.3 197.154 210.438C197.9 210.242 198.666 210.165 199.426 210.088C200.248 210.005 201.064 209.922 201.843 209.691C203.811 209.106 205.759 208.431 207.702 207.758C208.519 207.475 209.334 207.192 210.15 206.917C213.494 205.787 216.776 204.529 219.969 203.084C223.962 201.277 227.946 199.438 231.795 197.311C238.2 193.743 244.361 189.751 250.236 185.361C251.016 184.782 251.738 184.135 252.457 183.49L252.457 183.49L252.458 183.49L252.458 183.489C253.236 182.792 254.011 182.097 254.855 181.493C256.887 180.039 258.769 178.385 260.474 176.556C260.751 176.26 261.028 175.964 261.305 175.667L261.306 175.666C262.897 173.969 264.492 172.266 265.976 170.456C270.109 165.505 273.471 159.957 275.947 154C279.777 144.604 279.905 135.429 275.427 126.545C275.459 126.508 275.492 126.472 275.525 126.435L275.567 126.387C275.609 126.34 275.651 126.292 275.693 126.242C275.719 126.21 275.746 126.178 275.774 126.145C276.08 125.782 276.442 125.353 276.145 124.771C275.556 123.621 275.265 122.427 275.61 121.21C275.456 121.046 275.314 120.897 275.18 120.758L275.179 120.757L275.178 120.756L275.177 120.755L275.177 120.755C274.91 120.477 274.679 120.237 274.471 119.979C274.064 119.468 273.53 119.036 272.93 119.272C272.213 119.553 271.684 119.58 271.187 118.954C271.12 118.889 271.028 118.858 270.936 118.87C270.792 118.902 270.65 118.922 270.508 118.932C267.893 115.561 264.936 112.478 261.849 109.508C260.43 108.143 258.998 106.793 257.566 105.443L257.564 105.441C255.131 103.148 252.699 100.855 250.335 98.4909C244.74 92.9039 240.542 86.4901 238.478 78.7866C237.879 76.5546 237.432 74.2999 237.071 72.0321C237.407 72.0802 237.753 72.0672 238.092 71.9883C238.685 71.8306 239.319 71.939 239.828 72.2856C240.302 72.5527 240.79 72.7928 241.291 73.0049C242.261 73.4791 242.263 73.4775 243.157 72.7002L243.182 72.6787C243.252 72.6174 243.362 72.6057 243.475 72.5938C243.552 72.5855 243.631 72.5772 243.699 72.5526C244.432 72.2863 244.921 71.7715 244.831 71.2749C244.719 70.8243 244.577 70.3817 244.406 69.9501L244.448 69.9238C244.997 69.5836 245.563 69.2323 245.504 68.4383C245.979 68.1334 245.821 67.8179 245.664 67.5025C245.567 67.3078 245.469 67.1133 245.521 66.9212C245.708 66.2225 245.281 65.8485 244.832 65.4556L244.753 65.3862C244.203 64.901 243.579 64.5362 242.955 64.1713L242.955 64.171C242.722 64.0347 242.489 63.8984 242.259 63.7558C242.224 63.7338 242.172 63.7386 242.104 63.7448C242.067 63.7482 242.026 63.752 241.979 63.7522L242.376 64.5015C242.215 64.4626 242.052 64.435 241.891 64.4078C241.54 64.3487 241.201 64.2915 240.928 64.1241C239.924 63.5114 239.164 63.9316 238.401 64.5337L237.16 65.5095C237.285 66.0255 236.98 66.2955 236.676 66.5655C236.569 66.6604 236.462 66.7553 236.373 66.8609C236.219 65.5361 236.077 64.2094 235.935 62.8825V62.8823C235.816 61.7687 235.697 60.6549 235.57 59.5423C235.019 54.7019 234.725 49.8421 234.431 44.9828L234.431 44.9826L234.431 44.9823L234.431 44.9821L234.431 44.9818L234.431 44.9816L234.431 44.9814L234.431 44.9811L234.431 44.9809L234.431 44.9806L234.431 44.9795C234.147 40.2802 233.863 35.5813 233.346 30.9009C232.774 25.7157 231.527 20.6779 228.796 16.176C223.799 7.94548 216.115 3.57808 207.002 1.3893C197.427 -0.910194 188.08 0.442158 178.93 3.47189C170.392 6.29914 162.936 11.1084 156.082 16.8695C152.171 20.1568 148.94 24.0867 145.83 28.1105C143.056 31.7006 140.539 35.4717 138.022 39.2429C136.612 41.3561 135.201 43.4693 133.745 45.5508C131.446 48.839 129.013 51.9764 125.884 54.5272C118.811 60.2917 110.787 64.3671 102.396 67.778C90.653 72.5515 78.2953 75.077 65.9501 77.6L65.9499 77.6L65.9498 77.6L65.4366 77.7049C56.7372 79.4837 48.2399 81.8011 40.3816 86.0445C34.4719 89.2353 29.1498 93.2091 24.8087 98.3895C20.5101 103.521 17.4657 109.374 15.0151 115.571C14.947 115.744 14.8793 115.916 14.8115 116.088L14.8106 116.091C13.954 118.269 13.0966 120.45 11.5905 122.319C9.78617 124.593 8.28657 127.093 7.12988 129.757C5.31232 133.852 3.8655 138.089 2.41838 142.327L2.36336 142.488C-0.420591 150.637 0.533412 158.425 4.61283 165.881C8.68631 173.324 14.2224 179.265 22.1879 182.66C26.9613 184.752 31.9407 186.335 37.0442 187.385C40.6413 188.052 44.2751 188.504 47.926 188.736C48.497 188.779 49.0602 188.714 49.6244 188.648L49.6245 188.648C50.534 188.543 51.4459 188.438 52.3972 188.782C53.3133 189.113 54.5901 188.889 55.5548 188.518C56.5975 188.115 57.7396 187.698 58.6898 187.882C60.1269 188.159 61.505 187.983 62.8813 187.808H62.8815C63.542 187.724 64.2022 187.64 64.8683 187.606C65.7045 187.563 66.4895 187.302 67.2684 187.043C67.9955 186.801 68.7171 186.562 69.4698 186.503C70.0849 186.454 70.6956 186.325 71.3074 186.195C72.6514 185.909 74.0013 185.622 75.4171 186.195C76.067 186.362 76.7559 186.161 77.2149 185.671C77.5085 185.407 78.036 185.402 78.6345 185.397C78.9229 185.395 79.2278 185.392 79.5309 185.36C79.3012 185.528 79.0679 185.546 78.8532 185.562C78.5714 185.584 78.3216 185.603 78.1541 185.954C81.3436 185.665 84.4618 185.566 87.5844 185.52C95.4444 185.422 103.247 186.878 110.545 189.805C119.43 193.302 127.927 197.608 136.373 202.025C142.136 205.095 148.107 207.756 154.243 209.987C160.514 212.254 167.083 213.584 173.74 213.936C178.439 214.143 183.145 213.79 187.761 212.885ZM236.622 68.8875C236.64 69.0304 236.659 69.1732 236.678 69.3161C236.784 69.3478 236.893 69.3807 237.007 69.4149C236.875 69.2331 236.756 69.0706 236.646 68.9211L236.643 68.9168L236.64 68.9128L236.637 68.9088L236.635 68.9051L236.632 68.9015C236.629 68.8968 236.625 68.8922 236.622 68.8875ZM262.082 119.158C259.821 116.845 257.453 114.633 255.085 112.42C254.459 111.835 253.833 111.25 253.209 110.663C249.331 107.016 245.505 103.341 242.315 99.1074L241.032 100.406C240.708 100.354 240.395 100.296 240.089 100.239C239.439 100.119 238.82 100.004 238.195 99.9621C236.064 99.8185 234.227 98.8932 232.391 97.9682L232.39 97.9678C231.958 97.7502 231.526 97.5327 231.09 97.3253C230.224 96.9127 229.708 96.138 229.198 95.3723L229.198 95.3713C229.103 95.2286 229.008 95.0863 228.911 94.9466C228.838 94.8421 228.862 94.6706 228.886 94.4936V94.4935C228.898 94.4099 228.91 94.3251 228.911 94.2456L228.941 94.2607C229.338 94.466 229.714 94.6606 230.258 94.941L229.081 93.3209C229.15 93.1891 229.223 93.0652 229.295 92.9454C229.451 92.684 229.595 92.4423 229.648 92.182C229.744 91.8015 230.038 91.5039 230.417 91.4035C230.667 91.3032 230.959 91.3044 231.265 91.3057C231.401 91.3063 231.539 91.3069 231.678 91.2985C232.115 92.2802 232.965 92.7504 233.916 93.1928C234.022 93.0606 234.171 92.969 234.323 92.8758C234.593 92.7095 234.872 92.538 234.931 92.1212C235.008 91.9414 235.17 91.8125 235.362 91.7772C235.67 91.7513 235.98 91.7026 236.29 91.6538C236.76 91.5798 237.23 91.5057 237.698 91.5113C235.963 87.9086 234.69 84.0986 233.91 80.1718C231.801 69.1955 231.309 58.0611 230.817 46.9315L230.817 46.9307L230.759 45.6162C230.692 44.111 230.662 42.6036 230.632 41.0963V41.0959C230.555 37.2515 230.479 33.4073 229.79 29.5992C229.146 26.0448 228.146 22.6209 226.174 19.5479C222.619 14.1711 217.298 10.2077 211.134 8.34382C210.956 8.30993 210.786 8.24252 210.633 8.14516C209.171 6.96947 207.444 6.90439 205.714 6.83918L205.713 6.83915C205.542 6.83268 205.37 6.82621 205.199 6.81865C205.079 6.8133 204.951 6.81474 204.821 6.81619C204.415 6.82074 203.99 6.82549 203.749 6.62475C203.118 6.09988 202.429 6.1759 201.726 6.25335C201.156 6.31614 200.578 6.37987 200.016 6.12506C199.71 5.9867 199.215 6.08124 198.678 6.18393C198.244 6.26681 197.782 6.355 197.37 6.33032L198.793 6.07666L198.724 5.89249C198.314 5.91536 197.904 5.92998 197.494 5.94459C196.593 5.97666 195.693 6.00874 194.804 6.12802C194.48 6.17172 194.155 6.21455 193.83 6.25737C189.94 6.77025 186.063 7.28142 182.501 9.26257C182.046 9.51615 181.516 9.66223 180.975 9.81174C180.313 9.99426 179.634 10.1819 179.047 10.5765C178.322 11.0644 177.522 11.3774 176.714 11.6934C175.894 12.0143 175.066 12.3382 174.302 12.8513C171.961 14.4211 169.551 15.9353 167.084 17.3164C165.988 17.93 165.037 18.7144 164.087 19.4974L164.087 19.4975L164.087 19.4977C163.62 19.8832 163.153 20.2683 162.669 20.6324C161.558 21.5655 160.499 22.5593 159.498 23.6093C157.529 25.4449 155.719 27.4436 154.086 29.5842C152.453 31.7575 150.902 34.0093 149.385 36.2765C148.794 37.1595 148.218 38.0532 147.641 38.947L147.641 38.9479C146.757 40.3179 145.873 41.6881 144.937 43.0206C143.103 45.5919 141.438 48.2795 139.951 51.0665C139.569 51.7966 139.06 52.4094 138.551 53.0228L138.55 53.0229C138.088 53.5799 137.625 54.1373 137.256 54.7833C136.639 55.9936 135.881 57.1261 134.997 58.1568C133.327 59.9479 131.526 61.6115 129.609 63.1337C123.16 68.1768 115.984 71.9419 108.443 75.0297C108.085 75.1764 107.728 75.3272 107.37 75.4782L107.37 75.4784L107.37 75.4785L107.369 75.4785L107.369 75.4785L107.369 75.4786L107.369 75.4786L107.369 75.4786L107.369 75.4787L107.369 75.4787C105.407 76.3068 103.436 77.1389 101.255 77.3095C100.447 77.3287 99.65 77.5111 98.9133 77.8456C97.5624 78.5581 96.1086 79.0549 94.6045 79.3182C92.8652 79.643 91.1592 80.0931 89.452 80.5435L89.4519 80.5436C88.0595 80.911 86.6663 81.2786 85.2536 81.5785C80.1625 82.6604 75.0652 83.6962 69.9236 84.4743C68.4903 84.6913 67.0775 84.9995 65.664 85.3078L65.664 85.3078L65.6639 85.3078L65.6638 85.3079L65.6638 85.3079L65.6637 85.3079L65.6636 85.3079L65.6636 85.3079L65.6635 85.3079H65.6634C63.9918 85.6725 62.3194 86.0373 60.6112 86.2517C59.1703 86.433 57.7717 86.9686 56.3755 87.5032C55.818 87.7168 55.2608 87.9301 54.7016 88.1207C45.4349 91.2778 37.1947 96.0418 30.9461 103.753C30.5816 104.203 30.1176 104.461 29.6604 104.716C29.1238 105.015 28.5965 105.308 28.2504 105.9C25.3669 110.834 22.4163 115.727 19.2599 120.495C17.089 123.775 15.7158 127.419 14.3423 131.062C13.6175 132.986 12.8926 134.909 12.0504 136.779L12.0085 136.872L11.9709 136.956L11.9704 136.957C11.5561 137.883 11.5339 137.933 10.4182 138.573C10.3311 138.623 10.2946 138.768 10.2595 138.908L10.2594 138.908C10.2463 138.96 10.2334 139.011 10.2181 139.057C9.84595 140.157 9.44272 141.247 9.03951 142.337L9.03946 142.338C8.21489 144.567 7.39045 146.796 6.83205 149.112C6.74703 149.465 6.6572 149.818 6.56731 150.171C6.10794 151.975 5.64682 153.786 5.81567 155.676C6.52287 163.546 10.4303 169.5 16.898 173.828C20.5444 176.268 24.618 177.834 28.7599 179.21C37.2527 182.059 46.2513 183.074 55.1631 182.188C58.759 181.837 62.3428 181.384 65.9269 180.932C71.2827 180.255 76.6394 179.578 82.0389 179.24C90.83 178.623 99.656 179.775 107.997 182.627C118.104 186.115 127.639 190.871 137.139 195.712C143.653 199.03 150.273 202.11 157.295 204.213C167.171 207.17 177.166 207.455 187.28 205.58C193.388 204.459 199.412 202.919 205.309 200.971C221.462 195.604 236.523 188.068 250.247 177.921C256.505 173.292 262.192 168.103 266.609 161.626C269.586 157.258 272.234 152.727 273.733 147.607C274.612 144.603 275.055 141.567 274.265 138.471C273.303 134.676 271.665 131.086 269.43 127.873C269.279 127.655 269.126 127.439 268.972 127.225C267.707 126.849 266.475 126.37 265.256 125.867C265.092 125.799 264.928 125.731 264.763 125.664C264.618 125.604 264.472 125.544 264.326 125.485C262.287 124.65 260.243 123.813 258.334 122.687L258.305 122.669C257.649 122.283 257.647 122.281 257.953 121.369C258.329 121.556 258.703 121.746 259.077 121.937L259.078 121.937L259.079 121.937L259.079 121.938L259.08 121.938L259.08 121.938C259.948 122.38 260.814 122.821 261.701 123.213C262.393 123.519 263.112 123.766 263.861 124.024C264.201 124.141 264.547 124.261 264.901 124.389C264.851 124.022 264.586 123.719 264.23 123.62C261.946 122.862 259.738 121.888 257.635 120.712L257.868 120.097C257.89 120.099 257.92 120.101 257.961 120.105C258.035 120.111 258.141 120.121 258.286 120.133L257.808 119.476L258.831 118.367C259.02 118.331 259.232 118.389 259.46 118.451C259.81 118.546 260.195 118.651 260.585 118.44C260.889 118.885 261.35 118.989 261.809 119.093C261.901 119.114 261.992 119.134 262.082 119.158ZM95.9215 181.22C90.9712 180.425 85.9436 180.228 80.9466 180.633C74.9488 181.075 68.9828 181.812 63.0236 182.617C61.462 182.828 59.8953 183.008 58.3285 183.188C56.6682 183.378 55.0077 183.569 53.3528 183.797C53.0957 183.832 52.8279 183.8 52.5563 183.767C51.9998 183.701 51.4271 183.632 50.8969 184.138C53.1806 184.228 55.4678 184.117 57.7322 183.808C60.0538 183.533 62.3724 183.232 64.6911 182.932H64.6912C69.4518 182.316 74.2122 181.699 78.9982 181.299C84.6256 180.768 90.2892 180.742 95.9215 181.22ZM194.784 1.81107C200.374 1.78267 205.94 2.53967 211.32 4.05992C206.085 1.92924 200.397 1.15575 194.784 1.81107ZM104.576 69.343C110.666 67.2355 116.408 64.2294 121.611 60.4241C116.097 63.7125 110.38 66.6087 104.576 69.343ZM35.8401 91.1083C31.083 94.3457 26.6933 97.9658 23.7447 103.04C27.3074 98.6122 31.3657 94.6089 35.8401 91.1083ZM165.689 207.722L165.688 207.722L165.673 207.721C165.085 207.665 164.498 207.608 163.91 207.554C169.783 208.991 175.895 209.153 181.835 208.028C176.431 208.749 171.06 208.235 165.689 207.722ZM187.126 2.89314C187.061 2.82319 186.97 2.72455 186.838 2.59345C187.347 2.51037 187.845 2.42881 188.334 2.34861L188.337 2.34811L188.339 2.34772L188.34 2.3476C190.089 2.06108 191.732 1.79189 193.376 1.53236C193.597 1.49761 193.848 1.55511 193.834 1.86919C193.827 1.96096 193.782 2.04566 193.711 2.10339C193.639 2.16111 193.547 2.18677 193.456 2.17433C191.374 2.23944 189.305 2.52565 187.283 3.02818C187.256 3.03431 187.217 2.99293 187.126 2.89314ZM122.973 66.7752C125.2 65.7097 127.249 64.3062 129.047 62.6142L122.973 66.7752ZM74.3091 184.19C74.0191 185.356 72.903 185.695 70.4674 185.518C71.0123 185.12 71.6191 185.154 72.2067 185.186C73.0143 185.232 73.7854 185.275 74.3091 184.19ZM66.073 187.226L66.086 187.054L60.748 187.615L60.7658 187.784L66.073 187.226ZM102.611 116.061V116.06V116.06C102.609 115.774 102.607 115.517 102.62 115.26C102.637 115.122 102.68 114.989 102.745 114.867C102.824 114.695 102.984 114.674 103.149 114.653C103.327 114.63 103.51 114.606 103.598 114.389C103.722 114.051 103.92 113.744 104.176 113.492C104.278 113.401 104.457 113.361 104.621 113.324C104.8 113.284 104.962 113.247 104.993 113.154C105.123 112.754 105.243 112.574 105.68 112.67C105.759 112.687 105.896 112.532 105.98 112.433L105.985 112.427C106.597 111.706 106.598 111.705 107.533 112.146L107.324 111.46C107.625 111.637 107.914 111.835 108.189 112.051C108.46 112.314 108.711 112.596 108.939 112.897C109.154 113.229 109.445 113.505 109.789 113.7L109.074 112.476L109.191 112.383C109.368 112.562 109.536 112.749 109.694 112.944C109.949 113.291 110.198 113.642 110.447 113.994L110.447 113.994L110.447 113.994L110.447 113.994L110.448 113.994L110.448 113.994L110.448 113.994L110.448 113.994L110.448 113.994L110.448 113.995L110.448 113.995L110.448 113.995L110.448 113.995L110.448 113.995L110.448 113.995L110.448 113.995L110.448 113.995L110.448 113.995L110.448 113.995L110.448 113.995L110.448 113.995L110.448 113.995L110.448 113.995L110.448 113.995C110.933 114.679 111.417 115.363 111.946 116.01C112.66 116.816 113.077 117.842 113.128 118.916C113.089 118.911 113.049 118.904 113.009 118.897C112.72 118.847 112.437 118.798 112.529 119.324C112.643 119.979 112.238 120.218 111.588 120.352C111.605 120.386 111.623 120.421 111.641 120.455C111.931 121.011 112.242 121.607 111.293 122.012L110.338 120.698L110.139 120.789L110.441 121.663L110.712 122.449C110.136 122.47 109.619 122.422 109.284 121.829C109.227 121.729 109.096 121.676 108.961 121.62L108.961 121.62C108.871 121.584 108.78 121.546 108.708 121.494L108.69 121.482C107.917 120.929 107.915 120.928 107.292 121.354C107.247 121.385 107.203 121.416 107.16 121.448M102.611 116.061V116.061ZM102.611 116.061C102.611 116.136 102.612 116.212 102.612 116.292ZM102.612 116.292C102.612 116.342 102.612 116.393 102.612 116.445ZM102.612 116.445C101.563 116.649 101.366 116.818 101.417 117.697ZM101.417 117.697L101.42 117.754ZM101.42 117.754C101.444 118.178 101.469 118.628 101.823 118.994ZM101.823 118.994C101.995 119.171 102.134 119.38 102.273 119.589ZM102.273 119.589L102.273 119.589ZM102.273 119.589C102.406 119.788 102.539 119.988 102.701 120.16ZM102.701 120.16C103.369 120.873 104.111 121.485 105.138 121.61ZM105.138 121.61C105.468 121.65 105.796 121.706 106.136 121.765ZM106.136 121.765C106.292 121.792 106.452 121.819 106.615 121.845ZM106.615 121.845L106.939 121.611ZM106.939 121.611C106.978 121.582 107.016 121.554 107.056 121.524ZM131.941 111.001C132.42 110.923 132.665 110.883 132.77 110.741C132.879 110.593 132.838 110.335 132.755 109.808C132.898 109.603 133.114 109.464 133.33 109.325C133.666 109.109 134.004 108.891 134.073 108.421C134.673 108.213 135.26 107.972 135.833 107.7C136.614 107.282 137.385 107.478 138.132 107.667C138.243 107.696 138.353 107.723 138.462 107.749C138.508 107.76 138.555 107.771 138.602 107.782C138.651 107.793 138.7 107.805 138.749 107.816L138.75 107.816L138.75 107.816C139.234 107.928 139.725 108.042 140.203 108.198C140.541 108.308 140.886 108.394 141.232 108.48C141.571 108.564 141.909 108.648 142.241 108.755C142.734 108.914 143.214 109.116 143.693 109.318C143.804 109.365 143.914 109.411 144.025 109.457C144.199 109.507 144.356 109.606 144.477 109.742C144.673 110.075 145.019 110.291 145.403 110.321M131.941 111.001C131.946 111.151 131.914 111.298 131.882 111.446ZM131.882 111.446C131.813 111.761 131.743 112.083 132.022 112.453ZM132.022 112.453C132.38 112.946 132.91 113.286 133.505 113.407ZM133.505 113.407C133.572 113.422 133.642 113.441 133.712 113.461ZM133.712 113.461C133.938 113.523 134.17 113.587 134.362 113.531ZM134.362 113.531C134.926 113.366 135.457 113.482 135.987 113.598ZM135.987 113.598C136.244 113.655 136.502 113.711 136.762 113.735ZM136.762 113.735C137.686 113.821 138.4 114.4 138.951 115.053ZM138.951 115.053C140.288 116.637 142.119 117.309 143.949 117.98ZM143.949 117.98L144.097 118.034ZM144.097 118.034C144.689 118.251 145.226 117.977 145.772 117.698ZM145.772 117.698C145.865 117.65 145.958 117.603 146.052 117.557ZM146.052 117.557L146.098 117.535ZM146.098 117.535C147.117 117.042 147.357 116.927 147.223 116.021ZM147.223 116.021L147.208 115.921ZM147.208 115.921C147.122 115.352 147.066 114.981 147.871 115.058ZM147.871 115.058C147.931 115.065 148.021 114.852 148.091 114.688ZM148.091 114.688L148.101 114.664ZM148.101 114.664C148.11 114.644 148.118 114.624 148.126 114.607ZM148.126 114.607C148.155 114.541 148.178 114.447 148.2 114.361ZM148.2 114.361C148.228 114.245 148.254 114.144 148.284 114.143ZM148.284 114.143C149.018 114.14 148.724 113.656 148.576 113.414ZM148.576 113.414L148.568 113.402ZM148.568 113.402C148.519 113.32 148.469 113.236 148.419 113.153ZM148.419 113.153L148.419 113.153ZM148.419 113.153C148.089 112.601 147.748 112.03 147.27 111.647ZM147.27 111.647C147.102 111.513 146.944 111.358 146.784 111.202ZM178.045 76.3392L178.046 76.3368L178.048 76.3295C178.102 76.1764 178.157 76.0227 178.212 75.8684C178.118 75.7398 178.033 75.5948 177.947 75.4491C177.756 75.1262 177.564 74.7999 177.279 74.6412C176.954 74.4599 176.648 74.2501 176.341 74.0401C175.828 73.6893 175.315 73.338 174.716 73.1184C174.428 73.0131 174.132 72.9421 173.84 72.8719L173.84 72.8719C173.54 72.7999 173.243 72.7287 172.96 72.6218C172.551 72.4682 172.14 72.4473 171.731 72.4264C171.519 72.4156 171.308 72.4048 171.098 72.3757C170.59 72.3217 170.082 72.4523 169.664 72.7437C169.107 73.0995 168.691 73.5793 168.266 74.0706C168.073 74.2938 167.878 74.5193 167.666 74.7367L168.294 75.6014L167.16 75.5831C167.029 76.3038 167.299 76.8785 167.561 77.4376L167.561 77.4378C167.661 77.6495 167.759 77.8589 167.834 78.0732L166.664 78.0012C166.695 78.3503 166.767 78.6946 166.88 79.0268C167.418 80.0833 168.413 80.5793 169.422 81.0802C170.073 81.359 170.76 81.5432 171.462 81.6272C171.908 81.7095 172.359 81.6821 172.801 81.6551L172.801 81.6551C173.092 81.6374 173.379 81.6199 173.66 81.6338C174.316 81.6664 174.72 81.3845 175.13 81.0977L175.13 81.0976C175.269 81.0005 175.408 80.9029 175.559 80.8167C175.591 80.7984 175.623 80.769 175.655 80.7405C175.705 80.6947 175.753 80.6512 175.794 80.6589C176.625 80.8183 176.701 80.262 176.778 79.7014L176.789 79.6236C176.845 79.3374 176.887 79.0483 176.914 78.7576C176.904 78.4931 176.875 78.2296 176.826 77.9692C176.925 77.9678 177.027 77.9729 177.118 77.9775L177.118 77.9775L177.119 77.9775C177.291 77.9862 177.428 77.9931 177.445 77.9506C177.662 77.4244 177.852 76.8864 178.045 76.3398L178.045 76.3392ZM144.748 134.843L146.598 137.389C146.408 136.724 146.03 136.189 145.654 135.654L145.654 135.654C145.569 135.534 145.485 135.415 145.402 135.293C145.361 135.232 145.31 135.173 145.259 135.113C145.087 134.912 144.909 134.705 145.064 134.41C145.254 134.003 145.506 133.629 145.81 133.299C145.918 133.194 146.353 133.314 146.559 133.452C146.771 133.653 146.949 133.887 147.087 134.145C147.111 134.106 147.132 134.068 147.151 134.032C147.17 133.996 147.187 133.962 147.203 133.93C147.264 133.81 147.31 133.719 147.383 133.677C147.479 133.623 147.609 133.589 147.733 133.556C147.912 133.509 148.079 133.464 148.109 133.369M144.748 134.843L144.493 134.949ZM144.493 134.949C144.573 135.17 144.636 135.408 144.699 135.647ZM144.699 135.647C144.841 136.19 144.984 136.732 145.328 137.064ZM145.328 137.064C145.471 137.202 145.61 137.35 145.751 137.499ZM145.751 137.499C146.196 137.971 146.655 138.458 147.32 138.704ZM147.32 138.704C147.712 138.849 148.086 139.049 148.46 139.249ZM148.46 139.249C149.326 139.712 150.191 140.175 151.273 139.952ZM151.273 139.952C151.831 140.428 152.442 140.293 153.028 140.164ZM153.028 140.164C153.186 140.13 153.342 140.095 153.494 140.073ZM153.494 140.073C154.481 139.931 155.511 139.742 155.954 138.588ZM155.954 138.588C156.249 137.821 156.58 137.067 156.907 136.321ZM156.907 136.321L156.907 136.321ZM156.907 136.321C157.05 135.995 157.192 135.67 157.33 135.347ZM157.33 135.347C157.033 134.991 156.764 134.613 156.524 134.217ZM156.524 134.217C156.108 133.389 155.318 133.004 154.559 132.784ZM154.559 132.784C154.116 132.656 153.728 132.381 153.459 132.004ZM153.459 132.004C153.008 131.782 152.569 131.767 152.142 131.752ZM152.142 131.752C151.766 131.739 151.4 131.727 151.044 131.572ZM151.044 131.572C150.646 131.463 150.22 131.541 149.888 131.785ZM149.888 131.785C149.702 131.936 149.49 132.059 149.276 132.183ZM174.101 130.652L176.897 131.104C176.982 131.596 177.12 132.077 177.309 132.54C177.413 132.737 177.624 132.877 177.837 133.018C177.94 133.086 178.043 133.154 178.135 133.23C180.056 134.81 181.867 134.734 183.689 133.638C183.992 133.434 184.224 133.14 184.353 132.797C184.572 132.217 184.76 131.625 184.948 131.033L184.948 131.033L184.949 131.032L184.949 131.032L184.949 131.032L184.949 131.032L184.949 131.032L184.949 131.031L184.949 131.031L184.949 131.031L184.949 131.031L184.949 131.031L184.949 131.03L184.949 131.03L184.949 131.03L184.949 131.03L184.949 131.03L184.95 131.029L184.95 131.029L184.95 131.029C185.068 130.656 185.186 130.284 185.312 129.914C185.473 129.395 185.322 128.828 184.924 128.455C184.162 127.748 183.334 127.116 182.451 126.568C180.991 125.625 179.305 125.342 177.627 125.174C176.939 125.106 176.274 125.372 175.623 125.633L175.622 125.634C175.469 125.695 175.318 125.756 175.166 125.812C174.722 125.976 174.583 126.444 174.464 126.889C174.399 127.016 174.288 127.114 174.154 127.163C173.589 127.426 173.679 127.855 173.765 128.265L173.765 128.265C173.78 128.335 173.794 128.404 173.805 128.472C173.774 128.475 173.738 128.477 173.702 128.479C173.675 128.48 173.647 128.48 173.619 128.481C173.469 128.484 173.318 128.488 173.289 128.549C173.18 128.781 173.061 129.128 173.162 129.315C173.444 129.782 173.758 130.229 174.101 130.652ZM210.986 171.841L210.328 171.229C210.713 171.762 210.648 172.335 210.584 172.905C210.534 173.348 210.484 173.788 210.644 174.208C210.695 174.373 210.67 174.553 210.576 174.697C210.481 174.841 210.327 174.935 210.156 174.954C209.733 174.907 209.642 175.166 209.568 175.38C209.559 175.405 209.55 175.43 209.542 175.453C209.37 175.987 208.872 176.346 208.311 176.342C208.238 176.349 208.165 176.356 208.091 176.363C208.025 176.37 207.959 176.376 207.894 176.383L207.893 176.383C206.237 176.549 204.587 176.715 202.993 175.96C202.142 176.072 201.416 175.736 200.691 175.401C200.352 175.244 200.014 175.087 199.663 174.976M210.986 171.841C210.878 171.341 210.706 170.973 210.156 170.811ZM210.156 170.811C209.806 170.707 209.487 170.526 209.167 170.343ZM209.167 170.343L209.167 170.343ZM209.167 170.343C208.734 170.097 208.297 169.848 207.77 169.783ZM207.77 169.783C207.442 169.768 207.116 169.714 206.8 169.623ZM206.8 169.623C204.947 168.841 203.091 168.989 201.215 169.392ZM201.215 169.392L201.172 169.401ZM201.172 169.401L201.142 169.408ZM201.142 169.408L201.142 169.408ZM201.142 169.408C200.925 169.452 200.636 169.512 200.607 169.623ZM200.607 169.623C200.513 169.979 200.274 170.043 200.02 170.112ZM200.02 170.112C199.96 170.129 199.898 170.145 199.838 170.166ZM199.838 170.166C199.663 170.227 199.408 170.364 199.384 170.502ZM199.384 170.502C199.302 170.968 199.065 171.342 198.826 171.719ZM198.826 171.719L198.826 171.719ZM198.826 171.719C198.799 171.763 198.771 171.807 198.744 171.85ZM198.744 171.85C198.72 171.888 198.696 171.927 198.673 171.965ZM198.673 171.965C198.611 172.068 198.504 172.275 198.816 172.374ZM198.816 172.374C198.97 172.423 199.096 172.558 199.239 172.712ZM199.239 172.712C199.309 172.787 199.383 172.867 199.466 172.943ZM199.466 172.943C198.678 173.072 198.108 173.292 198.13 174.012ZM198.13 174.012C198.303 174.125 198.467 174.246 198.629 174.366ZM130.295 154.744C129.484 155.144 128.503 154.949 127.899 154.269C127.697 154.062 127.482 153.866 127.266 153.67C126.788 153.233 126.306 152.794 125.952 152.22C125.283 151.14 124.534 150.112 123.712 149.144C123.503 148.897 123.417 148.614 123.333 148.335C123.258 148.085 123.183 147.837 123.021 147.621C122.93 147.501 122.928 147.148 123.01 147.095C123.33 146.89 123.439 146.567 123.55 146.237C123.659 145.913 123.77 145.582 124.084 145.351C124.371 145.141 124.523 144.746 124.683 144.329C124.758 144.135 124.834 143.936 124.927 143.748C125.247 143.799 125.53 143.626 125.824 143.446C126.274 143.171 126.752 142.878 127.434 143.337C127.62 143.939 128.158 144.225 128.718 144.523L128.718 144.523C129.002 144.674 129.292 144.828 129.544 145.027C129.59 145.063 129.649 145.087 129.708 145.109C129.783 145.138 129.856 145.167 129.897 145.222C130.574 146.137 131.243 147.059 131.947 148.03L131.948 148.03L131.948 148.03L131.962 148.05C132.149 148.308 132.339 148.57 132.532 148.836L131.752 148.757C131.842 148.836 131.918 148.913 131.985 148.981C132.113 149.112 132.207 149.208 132.302 149.21C132.387 149.212 132.47 149.142 132.556 149.069C132.627 149.009 132.701 148.946 132.781 148.922C132.86 148.897 133.018 149.042 133.102 149.142C133.14 149.188 133.114 149.37 133.069 149.389C132.821 149.504 132.566 149.604 132.297 149.71L132.296 149.711C132.212 149.744 132.126 149.778 132.039 149.812C132.162 150.424 132.293 151.077 132.391 151.565L131.647 152.024C132.078 152.096 132.03 152.334 131.98 152.579C131.962 152.666 131.944 152.754 131.947 152.836C131.972 153.146 132.013 153.454 132.07 153.76C131.269 154.218 130.642 153.938 129.981 153.445L130.295 154.744ZM256.468 146.429L256.468 146.429L256.469 146.429C256.564 146.368 256.662 146.307 256.757 146.242C257.013 146.44 257.268 146.643 257.525 146.847L257.525 146.848C258.107 147.311 258.697 147.78 259.311 148.215C259.521 148.363 259.729 148.514 259.938 148.665C260.974 149.416 262.012 150.167 263.222 150.634C264.203 151.013 264.317 150.97 265.061 150.046C265.178 149.899 265.318 149.772 265.476 149.67C266.031 149.319 266.316 148.951 265.861 148.271C265.699 147.94 265.651 147.566 265.723 147.206C265.843 146.326 265.466 145.564 265.108 144.851C264.641 143.921 264.389 143.788 263.369 143.252L263.18 143.153C262.985 143.05 262.801 142.923 262.618 142.797C262.35 142.613 262.084 142.429 261.789 142.323C260.274 141.774 258.743 141.28 257.082 141.524C256.882 141.553 256.658 141.433 256.487 141.341C256.422 141.306 256.364 141.275 256.318 141.258L255.575 142.001L255.41 141.903L255.676 141.105L255.004 141.003C254.955 141.149 254.896 141.295 254.837 141.44C254.706 141.765 254.574 142.091 254.545 142.426C254.521 142.693 254.56 142.973 254.599 143.251C254.652 143.63 254.704 144.003 254.593 144.325C254.455 144.727 254.443 145.123 254.431 145.515L254.431 145.515L254.431 145.515L254.431 145.515L254.431 145.515L254.431 145.515L254.431 145.516L254.431 145.516V145.516C254.424 145.744 254.417 145.971 254.385 146.198C254.259 147.091 254.659 147.518 255.636 147.816C255.468 147.059 255.941 146.761 256.468 146.429L256.468 146.429ZM232.301 144.119C232.159 144.134 232.017 144.151 231.876 144.168C231.097 144.26 230.331 144.351 229.545 144.221C228.979 144.127 228.41 144.045 227.841 143.963L227.84 143.963L227.839 143.963C226.67 143.795 225.502 143.627 224.358 143.351C224.174 143.307 223.99 143.263 223.806 143.219C222.196 142.837 220.578 142.453 219.19 141.641C219.037 141.368 219.206 141.241 219.375 141.113C219.559 140.974 219.744 140.835 219.517 140.508C219.43 140.382 219.555 140.106 219.677 139.835C219.729 139.72 219.781 139.606 219.816 139.504C220.107 138.658 220.385 138.346 221.153 138.495C221.844 138.607 222.55 138.49 223.166 138.162C223.815 137.873 224.499 137.872 225.184 137.872H225.184C225.549 137.871 225.913 137.871 226.272 137.827C227.091 137.727 227.891 137.864 228.691 138.001C228.973 138.05 229.255 138.098 229.538 138.136C229.761 138.166 229.988 138.175 230.215 138.184C230.559 138.198 230.903 138.213 231.229 138.299C231.786 138.43 232.309 138.681 232.76 139.037C233.014 139.256 233.106 139.798 233.076 140.179C233.065 140.321 233.074 140.465 233.083 140.611C233.105 140.949 233.127 141.291 232.895 141.609C232.747 141.813 232.857 142.013 232.971 142.217C233.004 142.276 233.037 142.336 233.064 142.396C233.202 142.705 233.363 143.082 232.66 143.082C232.168 143.083 232.138 143.611 232.301 144.119ZM270.41 101.974L270.46 101.996C271.75 102.578 273.068 103.173 274.795 102.759C274.786 102.516 274.794 102.274 274.816 102.032C274.863 101.734 275.048 101.75 275.232 101.767C275.324 101.775 275.415 101.784 275.49 101.752C275.849 101.6 276.192 100.679 275.995 100.304C275.828 100.073 275.768 99.7808 275.832 99.5037C275.927 99.1925 275.939 98.869 275.952 98.5451C275.968 98.1444 275.983 97.743 276.155 97.3637C276.223 97.2598 276.232 97.1273 276.177 97.015C276.123 96.9026 276.013 96.8271 275.889 96.8162C275.754 96.7958 275.629 96.7313 275.534 96.6327C275.105 96.1449 274.586 95.7449 274.006 95.455C272.735 94.7927 271.391 94.741 270.019 94.8263C269.838 94.8312 269.659 94.8559 269.484 94.8999L269.447 94.9108C267.956 95.3473 267.945 95.3507 266.604 94.8981C266.358 94.815 266.118 94.7119 265.914 94.6244L265.913 94.6238C265.83 94.5882 265.754 94.5553 265.685 94.5273L264.72 95.5553C264.839 95.799 264.958 96.0436 265.071 96.277L263.986 96.412C264.522 96.8656 265.069 97.2127 265.601 97.55L265.602 97.5502C266.295 97.9897 266.962 98.4126 267.542 99.0329C266.889 98.9527 266.375 98.6403 265.877 98.3375C265.33 98.005 264.802 97.6842 264.131 97.6956C264.58 98.7921 265.475 99.2894 266.352 99.7764C266.596 99.9121 266.839 100.047 267.07 100.194C268.141 100.865 269.257 101.46 270.41 101.974ZM216.51 102.852L215.877 103.494L216.563 103.828L216.095 106.851C215.979 106.92 215.87 107.001 215.77 107.091C214.626 108.298 213.196 108.183 211.799 107.806C210.696 107.512 209.634 107.077 208.64 106.511C208.013 106.151 207.442 105.815 207.086 104.965C208.132 105.561 209.064 106.092 209.995 106.622L210.142 106.421C210.015 106.279 209.875 106.15 209.723 106.037C209.453 105.872 209.179 105.714 208.905 105.557C208.515 105.332 208.125 105.107 207.746 104.865C207.713 104.843 207.678 104.823 207.643 104.802C207.37 104.64 207.068 104.461 207.475 104.005C207.573 103.895 207.524 103.654 207.474 103.413C207.452 103.305 207.43 103.196 207.421 103.1C207.402 102.901 207.381 102.702 207.362 102.524L207.362 102.523L207.362 102.523L207.362 102.522L207.362 102.521L207.362 102.521L207.343 102.338C207.667 102.053 207.929 102.14 208.201 102.23C208.36 102.282 208.523 102.336 208.703 102.317L207.701 101.498L207.973 100.51L208.017 100.517C208.269 100.559 208.592 100.613 208.465 100.074C208.32 99.4573 208.479 99.0599 209.181 99.0247C209.245 99.0214 209.349 98.9769 209.362 98.9337C209.579 98.0852 210.224 98.2933 210.73 98.4567L210.743 98.461C211.719 98.7759 212.565 99.3495 213.407 99.9202C213.614 100.06 213.82 100.2 214.027 100.335C214.275 100.497 214.844 100.887 214.235 101.368C214.212 101.386 214.258 101.492 214.304 101.599C214.318 101.631 214.332 101.664 214.344 101.694C214.351 101.71 214.357 101.725 214.362 101.738C214.389 101.727 214.421 101.716 214.455 101.706C214.48 101.698 214.505 101.69 214.531 101.682C214.662 101.643 214.794 101.604 214.803 101.545C214.795 101.385 214.899 101.242 215.053 101.199C215.207 101.157 215.37 101.226 215.447 101.367C215.52 101.678 215.748 101.87 215.974 102.061C216.225 102.273 216.474 102.483 216.51 102.852ZM194.685 80.7686L193.841 80.632C193.651 80.9641 193.605 81.3607 193.715 81.7294C193.824 82.098 194.079 82.4065 194.42 82.5831C194.541 82.6569 194.666 82.7235 194.789 82.7897L194.789 82.7898C195.193 83.0056 195.587 83.2167 195.818 83.6596C196.276 83.621 196.591 83.8695 196.906 84.1182C197.098 84.2695 197.29 84.4208 197.514 84.5075C197.675 84.5697 197.834 84.6369 197.993 84.7041C198.212 84.7965 198.431 84.889 198.654 84.9682L198.781 85.0132L198.995 85.0894C199.663 85.3281 200.332 85.567 201.014 85.7571C201.382 85.8162 201.755 85.835 202.127 85.8131C203.206 85.864 203.958 85.2606 204.705 84.6605L204.706 84.6602C204.908 84.4982 205.109 84.3365 205.317 84.1879C205.426 84.1101 205.435 83.8933 205.443 83.7016V83.7014C205.447 83.6204 205.45 83.5439 205.461 83.4843C205.156 83.3131 204.887 83.1622 204.622 83.013L204.038 82.6848C204.875 82.2764 205.14 82.0374 205.852 81.0993C205.853 80.8667 205.68 80.7758 205.498 80.6807C205.29 80.5709 205.07 80.4554 205.092 80.1101C205.11 79.8198 204.583 79.7572 204.256 79.9227C204.052 80.0446 203.858 80.1826 203.676 80.3354L200.642 79.8454L200.631 79.8345L200.611 79.8152C200.588 79.7927 200.565 79.7702 200.545 79.7455L199.641 78.6362C199.239 78.9647 199.025 78.7179 198.817 78.4772C198.718 78.3631 198.62 78.2503 198.504 78.2008C198.429 78.1686 198.35 78.1325 198.269 78.0956L198.268 78.0951L198.267 78.0948L198.267 78.0946C197.874 77.915 197.443 77.7179 197.195 77.8671C196.927 78.0281 196.769 77.904 196.633 77.7971C196.534 77.7196 196.447 77.6511 196.337 77.7073C195.992 77.8852 195.675 78.1136 195.398 78.385C195.079 78.6978 194.783 79.0341 194.493 79.3644C194.37 79.5039 194.248 79.6423 194.126 79.7773C194.239 79.9762 194.345 80.1653 194.458 80.3648L194.478 80.4012L194.685 80.7686ZM144.663 89.4861L145.752 88.6951C145.791 88.6668 145.83 88.6377 145.869 88.6086L145.87 88.6076C146.25 88.3224 146.628 88.0389 147.118 88.5298C147.233 88.5877 147.368 88.5821 147.477 88.5152C147.778 88.2197 148.093 88.2979 148.406 88.3757C148.556 88.4128 148.705 88.4499 148.852 88.4462C149.95 88.4152 150.702 89.0742 151.439 89.7199C151.534 89.8024 151.627 89.8847 151.722 89.9653C152.197 90.3705 152.295 90.8378 151.982 91.5761C151.891 91.7932 151.781 92.0081 151.67 92.2251C151.359 92.8368 151.039 93.4643 151.088 94.1976C150.956 94.2972 150.886 94.464 150.816 94.6311C150.688 94.937 150.559 95.2443 150.05 95.1438C149.912 95.1415 149.778 95.1898 149.674 95.2796C148.206 96.3899 146.651 96.2063 145.039 95.6256C144.851 95.5576 144.659 95.4967 144.468 95.4358L144.467 95.4356C143.83 95.2329 143.194 95.0309 142.676 94.5671C142.4 94.3167 142.142 94.0469 141.904 93.7599C141.827 93.6676 141.76 93.4554 141.811 93.3814C142.034 93.0535 142.16 92.6799 142.286 92.3093C142.409 91.9447 142.532 91.5828 142.744 91.2699C143.238 90.535 143.895 89.9247 144.663 89.4861ZM185.767 148.889C185.237 148.678 184.965 148.57 184.594 148.422C184.432 149.468 184.436 149.471 185.016 149.798L185.04 149.811C185.742 150.195 186.545 150.347 187.335 150.246C187.845 150.207 188.35 150.377 188.735 150.717C189.684 151.405 190.703 151.989 191.776 152.458C192.088 152.604 192.454 152.627 192.822 152.65H192.822C193.02 152.663 193.22 152.676 193.411 152.708C193.676 152.752 193.838 152.574 193.999 152.397C194.183 152.194 194.366 151.992 194.703 152.128C194.698 151.967 194.811 151.849 194.926 151.73C195.094 151.555 195.266 151.377 195.074 151.05C194.986 150.828 195.013 150.578 195.147 150.381C195.568 149.921 195.434 149.536 195.096 149.132L195.582 148.855C195.505 148.748 195.434 148.63 195.363 148.512C195.208 148.254 195.052 147.995 194.824 147.846C192.877 146.569 190.81 145.532 188.449 145.355C187.817 145.349 187.191 145.468 186.607 145.706C186.075 145.865 185.735 146.381 185.796 146.934C185.799 146.98 185.732 147.032 185.67 147.081C185.659 147.089 185.648 147.098 185.638 147.106C185.628 147.114 185.619 147.122 185.61 147.129L185.609 147.131C185.314 147.394 185.179 147.515 185.163 147.651C185.149 147.766 185.22 147.892 185.353 148.124L185.354 148.126C185.408 148.22 185.459 148.315 185.547 148.479L185.547 148.48L185.547 148.48C185.591 148.562 185.644 148.66 185.71 148.783C185.728 148.817 185.747 148.852 185.767 148.889ZM196.67 118.56C196.551 118.429 196.449 118.282 196.368 118.124C196.345 118.068 196.362 117.993 196.379 117.92C196.397 117.843 196.415 117.767 196.387 117.713C196.356 117.653 196.285 117.616 196.212 117.579C196.146 117.544 196.078 117.509 196.039 117.456C196.004 117.409 195.998 117.333 195.991 117.261V117.261C195.984 117.182 195.977 117.108 195.935 117.08C195.773 116.984 195.59 116.931 195.402 116.926C195.248 116.953 195.101 117.005 194.965 117.081L195.098 117.185C195.299 117.342 195.473 117.477 195.647 117.612C195.593 117.616 195.539 117.621 195.486 117.626L195.485 117.626C194.939 117.676 194.413 117.723 194.191 117.028L194.914 116.866C194.628 116.386 194.367 116.523 194.091 116.669C193.912 116.763 193.727 116.86 193.523 116.798C193.731 116.682 193.85 116.512 193.97 116.343C194.092 116.17 194.214 115.997 194.429 115.882C194.561 115.81 194.584 115.538 194.611 115.227C194.624 115.074 194.637 114.912 194.665 114.76L196.757 114.884C196.706 114.782 196.659 114.689 196.614 114.601C196.57 114.512 196.528 114.428 196.486 114.345L196.485 114.343L196.419 114.212L196.32 114.017L197.809 112.421C197.991 112.473 198.164 112.527 198.332 112.579L198.332 112.579L198.332 112.579C198.701 112.694 199.043 112.801 199.393 112.866C199.604 112.906 199.822 112.909 200.04 112.913L200.04 112.913C200.276 112.917 200.512 112.92 200.738 112.97C201.968 113.238 202.973 113.976 203.941 114.723C204.288 114.99 204.788 115.447 204.21 116.008C204.502 116.407 204.366 116.784 204.228 117.164C204.152 117.376 204.075 117.589 204.072 117.808C204.062 118.572 203.47 119.132 202.556 119.358C201.187 119.696 199.889 119.371 198.626 119.052C198.422 119.001 198.216 118.956 198.008 118.91C197.569 118.813 197.122 118.714 196.67 118.56ZM228.017 119.605L227.287 119.829C227.316 119.994 227.294 120.17 227.271 120.351C227.226 120.711 227.177 121.092 227.528 121.452L226.823 121.415C226.938 121.543 227.037 121.674 227.129 121.797L227.129 121.797L227.129 121.797C227.31 122.038 227.464 122.243 227.663 122.309C228.857 122.723 230.076 123.059 231.312 123.316C231.992 123.416 232.684 123.385 233.351 123.222C233.524 123.187 233.659 122.989 233.797 122.786L233.797 122.786L233.797 122.786C233.875 122.67 233.955 122.553 234.044 122.463C234.464 122.036 234.464 121.489 234.387 120.982C234.369 120.87 234.327 120.769 234.286 120.67C234.19 120.441 234.097 120.218 234.314 119.87C234.504 119.566 234.258 118.888 234.041 118.463C233.819 118.114 233.5 117.838 233.124 117.668C232.495 117.298 231.815 117.023 231.105 116.854C230.819 116.805 230.553 116.703 230.285 116.6C229.868 116.44 229.449 116.279 228.948 116.318C228.428 116.358 227.891 116.2 227.366 116.045C227.137 115.977 226.91 115.91 226.687 115.86L226.687 115.86C226.366 116.095 226.186 116.226 226.079 116.402C225.942 116.627 225.925 116.924 225.885 117.6C226.322 117.677 226.718 117.908 227.003 118.25C226.659 118.18 226.311 118.126 225.961 118.092C225.735 118.111 225.511 118.155 225.295 118.224C225.668 118.599 226.128 118.704 226.584 118.807C227.119 118.928 227.648 119.048 228.017 119.605ZM252.707 167.856L251.826 167.966C252.26 169.123 252.232 169.22 251.197 169.441L252.69 170.332L252.33 171.152L250.263 170.817C250.353 171.235 250.662 171.352 250.978 171.471C251.24 171.57 251.508 171.671 251.66 171.947C251.116 172.472 250.465 172.338 249.836 172.208L249.765 172.194C249.594 172.159 249.429 172.089 249.265 172.018L249.265 172.018C249.088 171.943 248.911 171.867 248.726 171.836C247.147 171.56 245.589 171.166 244.067 170.658C243.926 170.621 243.781 170.597 243.636 170.585L243.529 170.571C242.784 170.471 242.04 170.37 241.51 169.708C241.712 169.217 242.109 169.283 242.52 169.351C242.556 169.357 242.592 169.363 242.628 169.369C242.696 169.379 242.763 169.388 242.83 169.394C242.791 168.952 242.509 168.925 242.231 168.897C242.031 168.877 241.833 168.858 241.729 168.685C241.592 168.471 241.769 168.341 241.946 168.213C242.171 168.048 242.395 167.885 241.956 167.547L243.233 166.619C243.292 166.618 243.351 166.617 243.41 166.617L243.542 166.615L243.741 166.612L243.742 166.612L243.743 166.612H243.743L243.744 166.612H243.744H243.744L243.747 166.612C244.13 166.606 244.515 166.6 244.899 166.601C245.118 166.602 245.331 166.635 245.545 166.667C245.878 166.718 246.214 166.77 246.581 166.705C246.95 166.64 247.344 166.73 247.742 166.821C247.976 166.875 248.212 166.93 248.445 166.952C248.515 166.959 248.584 166.97 248.653 166.983C248.697 166.991 248.741 167 248.785 167.009C249.073 167.068 249.364 167.127 249.701 166.991C249.835 166.937 249.989 166.955 250.15 166.974C250.4 167.003 250.669 167.035 250.909 166.807C251.018 166.703 251.398 166.764 251.574 166.876C251.974 167.177 252.352 167.504 252.707 167.856ZM187.301 94.0718C187.196 94.1754 187.085 94.2843 186.94 94.3759C186.944 93.9734 186.949 93.5706 186.953 93.2117L186.656 93.0819C186.419 92.978 186.183 92.8749 185.847 92.7275L185.929 93.2854L185.977 93.6097C185.889 93.6115 185.802 93.613 185.714 93.6144L185.631 93.3035C185.595 93.1733 185.56 93.0415 185.523 92.9062C185.415 92.8888 185.286 92.8835 185.155 92.8781H185.155C184.858 92.866 184.55 92.8534 184.438 92.6989C184.181 92.3448 184.041 92.5409 183.93 92.6967C183.86 92.7944 183.802 92.8762 183.733 92.7966C183.369 92.3762 183.259 92.5464 183.116 92.7672C183.011 92.9286 182.889 93.117 182.638 93.1215L182.232 92.9699C182.159 93.1759 182.089 93.3772 182.02 93.5749L182.02 93.5758L182.019 93.5768C181.852 94.0551 181.693 94.5123 181.515 94.9624C181.434 95.2207 181.286 95.453 181.088 95.6365C180.804 95.8495 180.828 96.0007 180.875 96.2899C180.881 96.3316 180.888 96.3762 180.895 96.4243C181.042 97.4688 181.764 97.8864 182.492 98.3076C182.619 98.3807 182.745 98.454 182.869 98.5307C182.925 98.5657 183.054 98.4834 183.19 98.3961C183.256 98.3538 183.323 98.3104 183.386 98.2785C183.189 98.0402 182.919 97.9182 182.657 97.8005C182.263 97.6229 181.891 97.4551 181.83 96.9121C183.087 97.2929 183.111 97.3242 184.132 98.7424C184.187 98.819 184.334 98.8294 184.489 98.8403C184.563 98.8455 184.638 98.8508 184.706 98.8636L184.661 98.6293L184.578 98.2008C184.788 98.22 184.981 98.2894 185.174 98.3583C185.488 98.4711 185.799 98.5823 186.169 98.4686C187.14 98.1707 187.175 98.1982 187.848 98.7313L187.901 98.7727C187.949 98.5966 188.029 98.4312 188.137 98.2845C188.186 98.2404 188.271 98.2359 188.356 98.2315C188.442 98.227 188.528 98.2225 188.577 98.1776C188.79 98.009 188.956 97.7888 189.06 97.5376C189.129 97.3104 189.129 97.0716 189.13 96.8311C189.131 96.4911 189.131 96.1477 189.323 95.8284C189.383 95.7298 189.27 95.4391 189.151 95.3367C188.813 95.0463 188.457 94.7758 188.101 94.5056L188.1 94.5054L188.1 94.5052L188.1 94.5051L188.1 94.5049L188.099 94.5047L188.098 94.5035C187.966 94.4035 187.834 94.3035 187.703 94.2026L188.059 93.6936C187.686 93.6934 187.503 93.8728 187.301 94.0718ZM173.051 158.624L171.656 158.23L171.804 159.064C171.231 159.15 170.645 159.082 170.105 158.868C169.532 158.673 168.976 158.434 168.42 158.196L168.419 158.196C167.842 157.948 167.264 157.7 166.666 157.5C165.943 157.259 165.464 156.644 165.132 155.888C165.401 155.594 165.713 155.664 166.039 155.738C166.266 155.789 166.5 155.842 166.732 155.774L165.893 154.619L168.056 152.526C169.255 152.645 170.413 153.038 171.44 153.676C171.678 153.822 171.939 153.919 172.201 154.016C172.573 154.154 172.949 154.294 173.272 154.576C173.347 154.642 173.388 154.746 173.429 154.852C173.508 155.052 173.588 155.254 173.903 155.194C173.94 155.312 173.971 155.432 173.996 155.553C173.614 155.663 173.543 155.982 173.472 156.302C173.405 156.601 173.339 156.9 173.02 157.031C172.979 157.048 173.03 157.308 173.061 157.472L173.061 157.472L173.067 157.5C173.119 157.671 173.162 157.846 173.194 158.023C173.169 158.228 173.121 158.43 173.051 158.624ZM210.856 154.744L209.6 153.997C209.46 154.099 209.317 154.2 209.173 154.302C208.848 154.533 208.518 154.767 208.202 155.019C207.718 155.406 207.808 155.745 208.433 156.108C208.501 156.148 208.541 156.238 208.582 156.332C208.601 156.377 208.621 156.422 208.645 156.464C208.558 156.484 208.468 156.495 208.378 156.506C208.04 156.546 207.72 156.583 207.693 157.121C207.87 157.21 208.046 157.31 208.223 157.41L208.224 157.411L208.224 157.411C208.633 157.642 209.048 157.877 209.495 157.999C210.099 158.15 210.665 158.428 211.155 158.814L210.78 159.824C211.41 159.946 212.013 159.982 212.603 160.018L212.603 160.018H212.603C212.964 160.04 213.32 160.062 213.673 160.103C214.529 160.201 215.058 159.908 215.326 159.031L214.943 158.504L215.466 158.024L215.363 157.422L215.241 156.714L216.36 156.519C215.963 156.136 215.697 155.88 215.404 155.598L215.474 155.427L215.474 155.427C215.565 155.208 215.66 154.978 215.748 154.745C215.754 154.73 215.734 154.705 215.693 154.655C215.666 154.622 215.631 154.578 215.589 154.52L214.588 154.503C214.602 154.584 214.63 154.74 214.659 154.908L214.68 155.028C214.189 155.271 213.609 155.252 213.132 154.978C212.851 154.822 212.55 154.705 212.238 154.63C211.737 154.54 211.268 154.322 210.875 153.996C210.846 153.973 210.79 153.984 210.732 153.995L210.732 153.996C210.715 153.999 210.697 154.002 210.681 154.005C210.671 154.006 210.662 154.007 210.654 154.008L210.856 154.744ZM179.443 183.076L180.61 183.504C180.597 183.464 180.586 183.426 180.577 183.39C180.569 183.362 180.563 183.335 180.557 183.309C180.53 183.201 180.51 183.117 180.458 183.067C180.172 182.797 179.875 182.539 179.557 182.262C179.439 182.16 179.318 182.054 179.193 181.945L179.879 181.446C180.029 181.528 180.211 181.626 180.574 181.823L179.869 180.853C179.965 180.744 180.045 180.623 180.109 180.493C180.146 180.374 180.179 180.204 180.208 180.053L180.208 180.053L180.208 180.052C180.245 179.863 180.277 179.703 180.303 179.704C180.592 179.723 180.802 179.578 181.004 179.438C181.138 179.346 181.268 179.256 181.417 179.216C181.972 179.069 182.595 179.062 182.994 179.622C183.051 179.702 183.061 179.823 183.071 179.939C183.082 180.066 183.092 180.189 183.163 180.249C183.219 180.298 183.331 180.27 183.451 180.24L183.451 180.24C183.565 180.211 183.687 180.181 183.777 180.212C183.955 180.295 184.078 180.463 184.106 180.657C183.992 181.073 184.216 181.331 184.434 181.583L184.434 181.583C184.461 181.614 184.488 181.645 184.513 181.675C184.802 181.953 184.819 182.408 184.552 182.703C184.275 183.058 184.357 183.343 184.528 183.733C184.808 184.262 184.624 184.915 184.11 185.214C183.91 185.341 183.727 185.493 183.565 185.666C183.172 186.109 182.499 186.425 182.101 186.185C181.903 186.066 181.699 185.953 181.495 185.84C180.702 185.401 179.907 184.96 179.41 184.115C179.191 183.743 179.29 183.481 179.404 183.183L179.428 183.118L179.443 183.076ZM202.937 133.827L201.753 134.249C201.932 135.121 202.501 135.384 203.15 135.327C204.175 135.228 205.21 135.393 206.156 135.806L206.196 135.824C206.488 135.95 206.9 136.129 207.217 135.759L207.141 135.349L207.067 134.954L207.882 135.313C208.348 134.901 208.193 134.56 208.045 134.235C207.981 134.095 207.918 133.957 207.908 133.818C208.306 133.715 208.338 133.404 208.37 133.095C208.404 132.77 208.437 132.446 208.898 132.367C208.803 132.259 208.716 132.137 208.635 132.022L208.635 132.022C208.472 131.792 208.329 131.591 208.178 131.584C207.63 131.559 207.187 131.304 206.748 131.051C206.431 130.868 206.116 130.687 205.765 130.593C205.511 130.499 205.236 130.483 204.975 130.549C204.821 130.615 204.637 130.563 204.461 130.513C204.193 130.436 203.943 130.365 203.839 130.72C203.757 131.006 203.531 131.046 203.317 131.084C203.1 131.122 202.894 131.159 202.859 131.446L203.203 132.166C203.056 132.311 202.855 132.336 202.658 132.36C202.372 132.395 202.097 132.429 202.015 132.831C202.6 132.928 202.819 133.329 202.937 133.827ZM173.108 106.889L172.469 109.157L171.478 109.877C171.181 109.772 170.902 109.615 170.621 109.457C170.154 109.195 169.683 108.93 169.118 108.898C168.58 108.266 167.851 108.107 167.111 107.944L167.11 107.944C166.987 107.917 166.862 107.89 166.739 107.86C166.554 107.816 166.4 107.643 166.229 107.45C166.145 107.355 166.057 107.256 165.959 107.165C166.005 107.106 166.055 107.053 166.103 107.004C166.194 106.908 166.275 106.824 166.293 106.727C166.58 105.217 167.78 105.077 168.924 105.134C169.917 105.208 170.893 105.436 171.818 105.81C172.183 105.949 172.484 106.261 172.761 106.548L172.761 106.549C172.88 106.672 172.994 106.79 173.108 106.889Z" fill="#F5D3AB"/>
</svg>
