<svg width="258" height="240" viewBox="0 0 258 240" fill="none" xmlns="http://www.w3.org/2000/svg">
<path fill-rule="evenodd" clip-rule="evenodd" d="M194.688 205.273C195.927 204.483 197.167 203.693 198.586 203.217C196.934 204.379 195.16 205.358 193.297 206.137C193.766 205.86 194.227 205.567 194.688 205.273ZM198.623 203.2L199.363 202.99C195.468 205.626 191.273 207.79 186.867 209.436C180.602 211.713 174.035 213.055 167.378 213.419C160.858 213.763 154.321 213.647 147.817 213.072C138.316 212.306 128.812 211.663 119.267 211.915C111.406 212.072 103.654 213.781 96.4576 216.942C93.6014 218.205 90.7699 219.515 87.9468 221.027C87.9636 220.638 88.1861 220.522 88.437 220.393C88.6282 220.294 88.836 220.186 88.9821 219.942C88.7155 220.09 88.4359 220.211 88.1714 220.326C87.6224 220.565 87.1385 220.775 86.9716 221.133C86.7405 221.763 86.1847 222.217 85.5213 222.318C83.9942 222.343 82.8638 223.135 81.7383 223.923C81.2259 224.282 80.7145 224.64 80.1672 224.925C79.4974 225.273 78.9268 225.776 78.3519 226.282C77.736 226.825 77.1153 227.372 76.3623 227.738C75.7625 228.03 75.1877 228.365 74.6126 228.701C73.4141 229.4 72.2142 230.1 70.7829 230.406C69.8367 230.609 68.9483 231.439 68.1456 232.217C67.4029 232.936 66.315 233.64 65.3422 233.693C64.3322 233.749 63.5339 234.202 62.7379 234.654L62.7377 234.654C62.2439 234.935 61.7509 235.215 61.2087 235.399C57.7571 236.611 54.2359 237.615 50.6639 238.407C45.556 239.434 40.3537 239.922 35.1426 239.862C26.4838 239.85 19.0665 236.544 12.4086 231.284C5.73993 226.014 1.81893 219.219 1.19741 210.63L1.18511 210.46C0.861267 205.993 0.537498 201.528 0.610622 197.048C0.634631 194.144 1.03799 191.257 1.81043 188.459C2.46637 186.15 2.4036 183.807 2.34089 181.467L2.34083 181.465C2.33587 181.28 2.33091 181.094 2.32631 180.909C2.16058 174.247 2.67586 167.67 4.62782 161.267C6.59968 154.802 9.94599 149.064 14.1392 143.818C19.7147 136.842 26.6311 131.388 33.9439 126.352L34.3753 126.055L34.3754 126.055C44.7535 118.909 55.142 111.755 64.0864 102.773C70.4775 96.3546 76.2717 89.4678 80.5296 81.398C82.4137 77.8272 83.4269 73.9888 84.2589 70.0634C84.7856 67.5786 85.2582 65.0823 85.7307 62.5861C86.574 58.1312 87.4173 53.6765 88.5683 49.2877C89.8586 44.3688 91.2971 39.4889 93.613 34.9347C97.6711 26.9534 102.655 19.6132 109.41 13.6746C116.648 7.31068 124.724 2.41347 134.437 0.788825C143.681 -0.757108 152.46 0.261016 160.276 5.88461C164.549 8.96132 167.665 13.1116 170.218 17.6611C172.522 21.7679 174.62 25.9825 176.718 30.1975L176.718 30.1978L176.718 30.198L176.718 30.1982L176.718 30.1984L176.718 30.1986L176.719 30.1988L176.719 30.199L176.719 30.1992L176.719 30.1994C178.888 34.5576 181.058 38.9163 183.456 43.1566C184.007 44.1313 184.552 45.11 185.097 46.0886C187.711 50.7842 190.325 55.4787 193.652 59.7351C198.562 66.0196 204.932 70.2832 212.265 73.24C215.365 74.4923 218.5 75.6525 221.635 76.8128L221.639 76.8141C223.484 77.4972 225.33 78.1804 227.168 78.8823C233.12 81.1545 238.903 83.7682 244.105 87.525C253.247 94.1265 257.372 103.243 257.531 114.329C257.579 120.78 256.652 127.2 254.782 133.372C254.123 135.619 253.32 137.81 252.519 139.995C252.379 140.376 252.24 140.757 252.101 141.138C251.246 143.487 250.16 145.745 248.858 147.878C248.317 148.763 247.875 149.706 247.431 150.652L247.431 150.652L247.431 150.653C247.021 151.527 246.609 152.405 246.117 153.243C242.424 159.579 238.313 165.661 233.811 171.448C231.1 174.91 228.151 178.16 225.182 181.383C222.806 183.961 220.277 186.402 217.64 188.748C216.997 189.32 216.357 189.899 215.716 190.478C214.19 191.858 212.661 193.24 211.078 194.547C210.451 195.064 209.732 195.459 209.008 195.857C208.338 196.225 207.664 196.595 207.053 197.067C204.555 199.064 201.913 200.874 199.149 202.482C198.869 202.637 198.602 202.817 198.623 203.2ZM128.712 8.31109L128.576 8.16874C128.208 8.3497 127.836 8.52349 127.464 8.69728C126.648 9.07861 125.832 9.45994 125.06 9.91696C124.778 10.0841 124.496 10.2504 124.214 10.4167C120.834 12.4087 117.465 14.3941 114.96 17.6096C114.639 18.021 114.209 18.3623 113.769 18.7115C113.232 19.1379 112.679 19.5763 112.294 20.1687C111.817 20.901 111.203 21.5018 110.583 22.1083C109.953 22.7241 109.318 23.3457 108.814 24.1169C107.273 26.4765 105.646 28.812 103.915 31.0472C103.146 32.0403 102.577 33.134 102.009 34.2257L102.009 34.2258L102.009 34.2261C101.729 34.7635 101.45 35.3004 101.147 35.8245C100.489 37.1176 99.9026 38.4461 99.3908 39.8039C98.2961 42.2628 97.4107 44.8099 96.7442 47.4183C96.0902 50.0569 95.5419 52.7358 95.0316 55.4154C94.8327 56.4595 94.6511 57.5078 94.4695 58.5561C94.1913 60.1626 93.913 61.7693 93.5721 63.3615C92.8889 66.4449 92.406 69.5696 92.1264 72.716C92.0595 73.5374 91.8306 74.3003 91.6015 75.0639L91.6015 75.0641C91.3935 75.7575 91.1853 76.4514 91.0981 77.1902C91.0031 78.5454 90.7473 79.8842 90.3362 81.1785C89.4992 83.4795 88.4914 85.7145 87.3213 87.8648C83.3557 95.0268 78.2215 101.296 72.4864 107.085C72.2139 107.36 71.9438 107.639 71.6735 107.918L71.6734 107.918L71.6733 107.918L71.6733 107.918L71.6732 107.918L71.6731 107.918L71.673 107.918L71.6729 107.918L71.6728 107.918C70.1907 109.447 68.7015 110.983 66.7607 111.992C66.0237 112.326 65.3618 112.805 64.8143 113.401C63.8492 114.585 62.7051 115.61 61.4235 116.44C59.9494 117.419 58.5548 118.5 57.1593 119.581L57.1593 119.581C56.0211 120.464 54.8823 121.346 53.6991 122.174C49.4355 125.16 45.148 128.105 40.7192 130.83C39.4847 131.59 38.3046 132.425 37.124 133.262L37.1239 133.262L37.1238 133.262L37.1238 133.262L37.1237 133.262L37.1237 133.262L37.1236 133.262L37.1235 133.262L37.1235 133.262L37.1234 133.262C35.7272 134.251 34.3302 135.24 32.8416 136.105C31.586 136.835 30.5079 137.874 29.4316 138.912C29.0019 139.326 28.5724 139.74 28.132 140.134C20.8356 146.661 15.1119 154.266 12.373 163.806C12.2134 164.362 11.8872 164.782 11.5657 165.195C11.1885 165.679 10.8179 166.155 10.7305 166.835C10.004 172.504 9.19983 178.161 8.15756 183.783C7.44082 187.651 7.60031 191.541 7.75984 195.432C7.84402 197.485 7.92821 199.539 7.88364 201.589L7.88151 201.692L7.87972 201.783L7.8797 201.785C7.86013 202.799 7.85908 202.853 7.08234 203.879C7.02169 203.959 7.04474 204.107 7.06693 204.249C7.07521 204.302 7.08337 204.354 7.08701 204.402C7.17443 205.56 7.22924 206.722 7.28404 207.883C7.39611 210.257 7.50816 212.631 7.89909 214.981C7.95878 215.339 8.01395 215.699 8.06915 216.059C8.35126 217.899 8.63445 219.747 9.52839 221.421C13.2543 228.388 19.1777 232.343 26.8222 233.799C31.1321 234.62 35.4937 234.47 39.844 234.118C48.7748 233.422 57.4547 230.841 65.3119 226.543C68.4848 224.815 71.6068 222.998 74.7291 221.181C79.3948 218.465 84.0613 215.75 88.8994 213.329C96.7505 209.326 105.325 206.937 114.117 206.304C124.784 205.565 135.419 206.217 146.055 206.961C153.348 207.471 160.645 207.719 167.931 206.911C178.177 205.775 187.489 202.132 196.066 196.453C201.251 193.035 206.194 189.264 210.861 185.166C223.633 173.915 234.552 161.093 243.22 146.39C247.173 139.684 250.379 132.685 251.915 124.998C252.948 119.814 253.615 114.607 252.995 109.309C252.63 106.201 251.852 103.232 249.915 100.692C247.546 97.5746 244.635 94.9097 241.323 92.8253C235.311 89.0362 228.697 86.6212 222.081 84.2055C221.276 83.9117 220.471 83.6178 219.667 83.3215C212.398 80.6409 205.205 77.862 199.113 72.7773C195.611 69.9031 192.538 66.5414 189.988 62.795C183.759 53.515 178.955 43.4581 174.153 33.4056L174.153 33.4049L173.585 32.2176C172.936 30.8582 172.319 29.4824 171.703 28.1066L171.702 28.1062C170.13 24.5973 168.557 21.0886 166.435 17.8524C164.454 14.8321 162.196 12.0712 159.18 10.013C153.806 6.45271 147.36 4.8832 140.957 5.57617C140.78 5.6145 140.598 5.61883 140.419 5.58892C138.613 5.07814 136.999 5.69286 135.381 6.3088L135.38 6.3091C135.219 6.37018 135.059 6.43129 134.898 6.49131C134.786 6.53313 134.668 6.58454 134.549 6.6367C134.177 6.79955 133.788 6.9698 133.488 6.87925C132.702 6.64259 132.097 6.98203 131.481 7.32785C130.981 7.60823 130.473 7.8928 129.856 7.87794C129.521 7.86998 129.102 8.15044 128.647 8.45505C128.28 8.7009 127.89 8.96248 127.501 9.10088L128.712 8.31109ZM88.438 215.037C92.8795 212.712 97.5844 210.929 102.452 209.726C97.0805 211.487 91.8775 213.724 86.9047 216.412C82.6556 218.65 78.5144 221.078 74.3732 223.505C72.3561 224.688 70.3391 225.87 68.3096 227.03C66.3462 228.2 64.284 229.195 62.1467 230.005C62.4371 229.332 62.9911 229.172 63.5294 229.016C63.7922 228.939 64.0513 228.864 64.2741 228.731C65.7084 227.875 67.1624 227.051 68.6163 226.227C69.9882 225.449 71.36 224.671 72.7151 223.867C77.8862 220.797 83.0898 217.788 88.438 215.037ZM123.355 5.95104C128.489 3.74082 133.909 2.26271 139.455 1.5599C133.803 1.64439 128.266 3.15472 123.355 5.95104ZM66.7046 103.362C71.4871 99.0421 75.5977 94.0316 78.9006 88.4957C75.1102 93.677 70.9785 98.5771 66.7046 103.362ZM11.9373 150.254C8.82331 155.093 6.19704 160.14 5.4653 165.963C7.01489 160.495 9.18641 155.225 11.9373 150.254ZM177.028 206.862L177.028 206.862C182.173 205.235 187.318 203.609 192.01 200.835C186.982 204.191 181.293 206.43 175.326 207.402C175.888 207.222 176.45 207.045 177.013 206.867L177.028 206.862ZM116.346 9.77598C116.519 9.84505 116.641 9.90036 116.728 9.93959C116.851 9.99554 116.903 10.0187 116.926 10.0024C118.59 8.74991 120.383 7.67793 122.274 6.80447C122.363 6.78033 122.438 6.72069 122.481 6.63958C122.524 6.55847 122.532 6.46304 122.503 6.37572C122.394 6.08107 122.14 6.12639 121.95 6.2446C120.538 7.12613 119.13 8.01602 117.632 8.96322L117.63 8.9645L117.628 8.96614C117.208 9.23124 116.782 9.50083 116.346 9.77598ZM82.6355 93.8099C84.2691 91.959 85.6068 89.8664 86.6015 87.6061L82.6355 93.8099ZM80.7009 223.629C83.0119 222.84 83.9068 222.092 83.718 220.905C83.6599 222.108 82.9332 222.37 82.1722 222.644C81.6185 222.843 81.0466 223.049 80.7009 223.629ZM77.2677 226.754L77.323 226.918L72.6557 229.505L72.5733 229.357L77.2677 226.754Z" fill="#9EAD8D"/>
</svg>
