<svg width="498" height="547" viewBox="0 0 498 547" fill="none" xmlns="http://www.w3.org/2000/svg">
<path fill-rule="evenodd" clip-rule="evenodd" d="M131.937 61.8425C106.337 75.7746 81.4941 91.0531 57.5116 107.614L57.0116 106.864C58.5081 105.838 60.0067 104.816 61.5054 103.794L61.5664 103.752L61.5774 103.744C65.0079 101.404 68.4388 99.0638 71.847 96.685C86.4973 86.4395 101.887 77.3837 117.276 68.3286L117.277 68.328L118.958 67.3389C130.755 60.4634 143.336 55.0327 156.429 51.1642C168.715 47.4632 180.477 42.4045 192.24 37.345L192.24 37.3449L192.241 37.3445L192.245 37.3428L192.249 37.3411L192.253 37.3393L192.257 37.3376L192.261 37.3359L192.266 37.3342L192.27 37.3324L192.274 37.3307L192.278 37.329L192.282 37.3272L192.286 37.3255L192.29 37.3238L192.294 37.322L192.298 37.3203L192.302 37.3186L192.306 37.317C195.455 35.9625 198.604 34.608 201.764 33.2799C230.541 21.1814 259.826 10.5188 290.244 3.26246C290.922 3.10081 291.616 2.90554 292.312 2.70958C294.074 2.21335 295.852 1.71266 297.438 1.74239C299.668 1.78434 301.877 1.53744 304.087 1.29039C307.311 0.929994 310.538 0.569283 313.841 1.10409C315.192 1.32217 316.576 1.15906 317.99 0.992547L317.99 0.992471C319.677 0.793734 321.405 0.590175 323.167 1.02432C329.9 2.67811 336.748 2.60602 343.606 2.53383L343.607 2.53379C345.69 2.51188 347.775 2.48998 349.858 2.51646C363.642 2.69165 377.689 2.88856 390.563 8.18654C413.68 17.6999 435.861 29.2304 454.292 46.4743C473.366 64.3189 486.405 85.7954 492.166 111.684C492.577 113.529 493.007 115.366 493.437 117.201L493.438 117.201L493.438 117.204C495.608 126.456 497.761 135.64 497.237 145.294C496.796 151.269 495.957 157.208 494.726 163.073C494.295 165.346 493.97 167.632 493.644 169.919L493.644 169.919C492.96 174.727 492.276 179.536 490.612 184.221C487.215 193.787 483.759 203.271 479.452 212.498C474.927 222.186 476.879 232.038 480.074 241.859C481.465 246.139 483.023 250.363 484.581 254.586L484.581 254.587C487.439 262.337 490.298 270.088 492.133 278.193C500.059 313.209 495.798 346.532 479.842 378.804C474.048 390.525 467.449 401.745 460.851 412.964C458.277 417.339 455.704 421.714 453.179 426.118C449.138 433.167 444.829 440.068 440.521 446.967L440.521 446.967L440.521 446.968L440.521 446.968C435.822 454.495 431.124 462.018 426.778 469.727C407.951 503.105 377.376 520.332 343.085 532.712C327.862 538.207 311.888 540.622 295.83 542.557C293.115 542.885 290.402 543.23 287.69 543.575C272.884 545.458 258.102 547.339 243.07 546.331C211.084 544.182 181.76 534.941 156.279 514.894C144.009 505.241 131.748 495.57 121.704 483.538C111.725 471.855 103.908 458.488 98.6199 444.063C95.3598 434.946 92.7509 425.638 90.1425 416.331L90.1424 416.331L90.1424 416.331L90.1423 416.33L90.1422 416.33L90.1421 416.33L90.142 416.329L90.1419 416.329L90.1418 416.329L90.1417 416.328L90.1416 416.328L90.1415 416.327L90.1414 416.327L90.1413 416.327L90.1412 416.326L90.1411 416.326L90.141 416.326L90.1409 416.325L90.1408 416.325L90.1407 416.325L90.1406 416.324L90.1405 416.324L90.1404 416.323L90.1403 416.323L90.1402 416.323L90.1401 416.322C87.6809 407.548 85.2221 398.775 82.2177 390.166C81.0141 386.781 79.5143 383.509 77.7356 380.388C76.0121 377.317 74.4471 374.156 72.8825 370.995C70.2319 365.642 67.5822 360.29 64.1652 355.379C60.9528 350.763 57.613 346.235 54.2734 341.707L54.273 341.707L54.2725 341.706L54.2721 341.706L54.2717 341.705L54.2712 341.704L54.2708 341.704L54.2704 341.703L54.2699 341.703L54.2695 341.702L54.2691 341.701L54.2686 341.701L54.2682 341.7L54.2677 341.7L54.2673 341.699L54.2669 341.698L54.2664 341.698L54.266 341.697L54.2656 341.697L54.2651 341.696L54.2647 341.695L54.2643 341.695L54.2638 341.694L54.2634 341.694L54.263 341.693L54.2625 341.692C50.7712 336.959 47.2799 332.225 43.9339 327.392C34.0206 312.877 25.6627 297.359 18.9977 281.095C12.6388 265.817 7.56962 250.033 3.84317 233.907C1.53474 224.303 0.409388 214.451 0.492148 204.571C0.510276 203.418 0.415001 202.226 0.318618 201.021L0.318504 201.019L0.318443 201.018L0.318425 201.018L0.318408 201.018L0.31839 201.017L0.318373 201.017L0.318356 201.016L0.318338 201.016L0.318321 201.015L0.318303 201.015L0.318286 201.015L0.318269 201.014L0.318251 201.014L0.318234 201.013L0.318216 201.013L0.318199 201.013L0.318182 201.012L0.318164 201.012L0.318147 201.011L0.318129 201.011L0.318112 201.011C0.0270104 197.366 -0.274168 193.595 2.49205 190.39C2.99796 176.157 9.99218 164.658 16.983 153.165C18.5022 150.667 20.0213 148.169 21.4736 145.644C23.8173 141.569 26.7013 137.878 29.5823 134.189L29.5829 134.189L29.5835 134.188L29.5841 134.187L29.5848 134.186L29.5854 134.186L29.586 134.185L29.5866 134.184L29.5872 134.183L29.5879 134.183L29.5885 134.182L29.5891 134.181C31.0896 132.26 32.5893 130.34 34.0112 128.367C36.3079 125.182 39.2751 122.999 42.2283 120.825C43.6264 119.797 45.0213 118.77 46.3405 117.641C55.9656 109.388 66.5712 102.431 77.1682 95.4799C78.8961 94.3464 80.6238 93.2131 82.347 92.0743C98.4856 81.4039 115.175 71.6144 131.937 61.8425ZM365.27 118.817L365.269 118.819C358.734 130.761 352.133 142.822 347.491 156.566C358.184 141.98 371.072 115.629 370.531 109.099C368.809 112.35 367.043 115.578 365.271 118.815L365.27 118.817ZM352.021 190.855L350.247 190.122C351.435 187.187 352.581 184.234 353.728 181.281C357.727 170.978 361.727 160.672 367.536 151.13C363.659 164.845 357.878 177.765 352.096 190.687L352.021 190.855ZM428.825 303.018C427.615 309.38 425.84 315.606 424.067 321.827C421.827 329.685 419.589 337.537 418.494 345.648C424.446 332.161 427.944 317.725 428.825 303.018ZM446.234 191.814C443.961 185.683 447.301 165.804 451.281 162.003C450.661 165.447 450.225 168.925 449.784 172.434C448.987 178.793 448.176 185.257 446.234 191.814ZM282.633 304.389C288.825 298.425 299.993 278.27 300.735 271.687L282.633 304.389ZM223.114 530.005C213.928 526.373 204.334 523.868 194.542 522.545C203.59 526.58 213.243 529.1 223.114 530.005ZM429.819 375.964C430.384 374.665 430.964 373.37 431.544 372.075C435.224 363.862 438.903 355.649 438.652 346.253C436.96 352.259 435.152 358.229 433.345 364.201L433.345 364.201L433.344 364.202L433.344 364.202L433.344 364.203L433.344 364.203L433.344 364.203L433.344 364.204L433.344 364.204L433.344 364.205L433.343 364.205L433.343 364.206L433.343 364.206L433.343 364.206L433.343 364.207L433.343 364.207L433.343 364.208L433.343 364.208L433.342 364.209L433.342 364.209L433.341 364.214C432.156 368.127 430.972 372.04 429.819 375.964ZM369.762 165.509C370.492 163.878 371.222 162.247 371.94 160.611C369.385 171.113 364.931 180.901 360.246 190.599C362.445 181.868 366.104 173.688 369.762 165.509ZM418.056 474.243C414.543 479.169 410.694 483.848 406.538 488.247C403.684 491.234 400.68 494.078 397.676 496.922L397.676 496.923C396.364 498.164 395.053 499.406 393.754 500.66C404.607 493.817 415.515 481.891 418.056 474.243ZM401.754 391.017C401.955 395.783 392.573 413.488 386.082 420.605C387.128 418.567 388.236 416.552 389.346 414.533C390.912 411.686 392.482 408.829 393.892 405.882C395.514 402.485 397.321 399.175 399.202 395.728C400.041 394.192 400.895 392.628 401.754 391.017ZM341.936 128.686L341.065 128.194C336.817 132.688 334.411 138.222 332.005 143.757C331.592 144.707 331.179 145.657 330.756 146.602L331.595 147.074L341.936 128.686ZM258.171 323.267L245.295 345.882C248.264 337.687 252.32 329.926 257.355 322.806L257.609 322.95L257.809 323.063C257.93 323.131 258.051 323.199 258.171 323.267ZM243.258 318.984C239.71 321.544 232.159 335.623 231.456 340.07L243.258 318.984ZM369.902 189.896L368.843 189.44L376.476 170.307C375.281 177.208 372.646 183.566 369.902 189.896ZM429.382 213.274L429.383 213.27L429.384 213.277L429.382 213.274ZM431.496 194.131C429.2 200.236 428.474 206.817 429.383 213.27L431.496 194.131ZM474.643 149.771L473.049 130.202L473.05 130.204C475.056 136.52 475.601 143.21 474.643 149.771ZM273.833 427.132L274.714 427.836L284.705 415.266L283.954 414.667C282.668 416.591 281.064 418.259 279.459 419.928C277.339 422.134 275.219 424.339 273.832 427.131L273.833 427.132ZM224.66 311.671L224.662 311.669L224.661 311.667L224.66 311.671ZM217.397 323.31C218.802 318.884 221.3 314.881 224.66 311.671C224.375 312.282 224.098 312.901 223.82 313.52C222.221 317.087 220.605 320.692 217.397 323.31ZM483.198 168.729C485.063 165.49 485.983 161.795 485.857 158.063C485.858 157.959 485.866 157.85 485.875 157.74C485.914 157.237 485.954 156.721 485.248 156.584C484.388 156.417 484.205 157.12 484.155 157.714C483.885 160.568 483.644 163.423 483.405 166.278L483.404 166.279L483.404 166.283C483.336 167.098 483.267 167.913 483.198 168.728L483.198 168.729ZM456.232 351.59L456.232 351.588L456.232 351.587L456.232 351.59ZM456.232 351.59C456.085 352.043 455.936 352.496 455.788 352.948C454.498 356.876 453.218 360.776 453.138 364.925C455.824 360.842 456.101 356.207 456.232 351.59ZM464.968 153.918C466.451 148.979 466.191 142.304 464.715 139.516L464.968 153.918ZM45.1423 148.338L45.1348 148.345L45.1396 148.342L45.1423 148.338ZM45.1423 148.338L55.6307 138.495C51.3221 140.787 47.7016 144.185 45.1423 148.338ZM359.561 140.638C356.892 144.267 354.795 148.283 353.344 152.546C355.959 148.884 358.052 144.876 359.561 140.638ZM131.056 476.294C131.349 477.109 131.637 477.913 132.118 478.581L132.104 478.571C129.985 477.007 127.859 475.438 127.516 472.225C129.842 472.906 130.457 474.623 131.056 476.294ZM293.789 343.03C291.252 345.838 289.254 349.089 287.894 352.618C290.414 349.797 292.41 346.55 293.789 343.03ZM129.358 66.5746L129.448 66.737L119.575 72.2093L119.485 72.0469L129.358 66.5746Z" fill="#FBB65F"/>
</svg>
